<?xml version="1.0" encoding="utf-8" standalone="no"?>
<!DOCTYPE svg PUBLIC "-//W3C//DTD SVG 1.1//EN"
  "http://www.w3.org/Graphics/SVG/1.1/DTD/svg11.dtd">
<svg xmlns:xlink="http://www.w3.org/1999/xlink" width="591.12pt" height="429.12pt" viewBox="0 0 591.12 429.12" xmlns="http://www.w3.org/2000/svg" version="1.1">
 <metadata>
  <rdf:RDF xmlns:dc="http://purl.org/dc/elements/1.1/" xmlns:cc="http://creativecommons.org/ns#" xmlns:rdf="http://www.w3.org/1999/02/22-rdf-syntax-ns#">
   <cc:Work>
    <dc:type rdf:resource="http://purl.org/dc/dcmitype/StillImage"/>
    <dc:date>2023-05-24T15:26:02.575061</dc:date>
    <dc:format>image/svg+xml</dc:format>
    <dc:creator>
     <cc:Agent>
      <dc:title>Matplotlib v3.5.3, https://matplotlib.org/</dc:title>
     </cc:Agent>
    </dc:creator>
   </cc:Work>
  </rdf:RDF>
 </metadata>
 <defs>
  <style type="text/css">*{stroke-linejoin: round; stroke-linecap: butt}</style>
 </defs>
 <g id="figure_1">
  <g id="patch_1">
   <path d="M 0 429.12 
L 591.12 429.12 
L 591.12 0 
L 0 0 
z
" style="fill: #ffffff"/>
  </g>
  <g id="axes_1">
   <g id="patch_2">
    <path d="M 73.89 381.9168 
L 532.008 381.9168 
L 532.008 51.4944 
L 73.89 51.4944 
z
" style="fill: #ffffff"/>
   </g>
   <g id="matplotlib.axis_1">
    <g id="xtick_1">
     <g id="line2d_1">
      <path d="M 73.89 381.9168 
L 73.89 51.4944 
" clip-path="url(#pe581c9705f)" style="fill: none; stroke: #b0b0b0; stroke-width: 0.8; stroke-linecap: square"/>
     </g>
     <g id="line2d_2">
      <defs>
       <path id="m3c556380eb" d="M 0 0 
L 0 3.5 
" style="stroke: #000000; stroke-width: 0.8"/>
      </defs>
      <g>
       <use xlink:href="#m3c556380eb" x="73.89" y="381.9168" style="stroke: #000000; stroke-width: 0.8"/>
      </g>
     </g>
     <g id="text_1">
      <!-- 0 -->
      <g transform="translate(70.70875 396.515238)scale(0.1 -0.1)">
       <defs>
        <path id="DejaVuSans-30" d="M 2034 4250 
Q 1547 4250 1301 3770 
Q 1056 3291 1056 2328 
Q 1056 1369 1301 889 
Q 1547 409 2034 409 
Q 2525 409 2770 889 
Q 3016 1369 3016 2328 
Q 3016 3291 2770 3770 
Q 2525 4250 2034 4250 
z
M 2034 4750 
Q 2819 4750 3233 4129 
Q 3647 3509 3647 2328 
Q 3647 1150 3233 529 
Q 2819 -91 2034 -91 
Q 1250 -91 836 529 
Q 422 1150 422 2328 
Q 422 3509 836 4129 
Q 1250 4750 2034 4750 
z
" transform="scale(0.015625)"/>
       </defs>
       <use xlink:href="#DejaVuSans-30"/>
      </g>
     </g>
    </g>
    <g id="xtick_2">
     <g id="line2d_3">
      <path d="M 119.7018 381.9168 
L 119.7018 51.4944 
" clip-path="url(#pe581c9705f)" style="fill: none; stroke: #b0b0b0; stroke-width: 0.8; stroke-linecap: square"/>
     </g>
     <g id="line2d_4">
      <g>
       <use xlink:href="#m3c556380eb" x="119.7018" y="381.9168" style="stroke: #000000; stroke-width: 0.8"/>
      </g>
     </g>
     <g id="text_2">
      <!-- 50 -->
      <g transform="translate(113.3393 396.515238)scale(0.1 -0.1)">
       <defs>
        <path id="DejaVuSans-35" d="M 691 4666 
L 3169 4666 
L 3169 4134 
L 1269 4134 
L 1269 2991 
Q 1406 3038 1543 3061 
Q 1681 3084 1819 3084 
Q 2600 3084 3056 2656 
Q 3513 2228 3513 1497 
Q 3513 744 3044 326 
Q 2575 -91 1722 -91 
Q 1428 -91 1123 -41 
Q 819 9 494 109 
L 494 744 
Q 775 591 1075 516 
Q 1375 441 1709 441 
Q 2250 441 2565 725 
Q 2881 1009 2881 1497 
Q 2881 1984 2565 2268 
Q 2250 2553 1709 2553 
Q 1456 2553 1204 2497 
Q 953 2441 691 2322 
L 691 4666 
z
" transform="scale(0.015625)"/>
       </defs>
       <use xlink:href="#DejaVuSans-35"/>
       <use xlink:href="#DejaVuSans-30" x="63.623047"/>
      </g>
     </g>
    </g>
    <g id="xtick_3">
     <g id="line2d_5">
      <path d="M 165.5136 381.9168 
L 165.5136 51.4944 
" clip-path="url(#pe581c9705f)" style="fill: none; stroke: #b0b0b0; stroke-width: 0.8; stroke-linecap: square"/>
     </g>
     <g id="line2d_6">
      <g>
       <use xlink:href="#m3c556380eb" x="165.5136" y="381.9168" style="stroke: #000000; stroke-width: 0.8"/>
      </g>
     </g>
     <g id="text_3">
      <!-- 100 -->
      <g transform="translate(155.96985 396.515238)scale(0.1 -0.1)">
       <defs>
        <path id="DejaVuSans-31" d="M 794 531 
L 1825 531 
L 1825 4091 
L 703 3866 
L 703 4441 
L 1819 4666 
L 2450 4666 
L 2450 531 
L 3481 531 
L 3481 0 
L 794 0 
L 794 531 
z
" transform="scale(0.015625)"/>
       </defs>
       <use xlink:href="#DejaVuSans-31"/>
       <use xlink:href="#DejaVuSans-30" x="63.623047"/>
       <use xlink:href="#DejaVuSans-30" x="127.246094"/>
      </g>
     </g>
    </g>
    <g id="xtick_4">
     <g id="line2d_7">
      <path d="M 211.3254 381.9168 
L 211.3254 51.4944 
" clip-path="url(#pe581c9705f)" style="fill: none; stroke: #b0b0b0; stroke-width: 0.8; stroke-linecap: square"/>
     </g>
     <g id="line2d_8">
      <g>
       <use xlink:href="#m3c556380eb" x="211.3254" y="381.9168" style="stroke: #000000; stroke-width: 0.8"/>
      </g>
     </g>
     <g id="text_4">
      <!-- 150 -->
      <g transform="translate(201.78165 396.515238)scale(0.1 -0.1)">
       <use xlink:href="#DejaVuSans-31"/>
       <use xlink:href="#DejaVuSans-35" x="63.623047"/>
       <use xlink:href="#DejaVuSans-30" x="127.246094"/>
      </g>
     </g>
    </g>
    <g id="xtick_5">
     <g id="line2d_9">
      <path d="M 257.1372 381.9168 
L 257.1372 51.4944 
" clip-path="url(#pe581c9705f)" style="fill: none; stroke: #b0b0b0; stroke-width: 0.8; stroke-linecap: square"/>
     </g>
     <g id="line2d_10">
      <g>
       <use xlink:href="#m3c556380eb" x="257.1372" y="381.9168" style="stroke: #000000; stroke-width: 0.8"/>
      </g>
     </g>
     <g id="text_5">
      <!-- 200 -->
      <g transform="translate(247.59345 396.515238)scale(0.1 -0.1)">
       <defs>
        <path id="DejaVuSans-32" d="M 1228 531 
L 3431 531 
L 3431 0 
L 469 0 
L 469 531 
Q 828 903 1448 1529 
Q 2069 2156 2228 2338 
Q 2531 2678 2651 2914 
Q 2772 3150 2772 3378 
Q 2772 3750 2511 3984 
Q 2250 4219 1831 4219 
Q 1534 4219 1204 4116 
Q 875 4013 500 3803 
L 500 4441 
Q 881 4594 1212 4672 
Q 1544 4750 1819 4750 
Q 2544 4750 2975 4387 
Q 3406 4025 3406 3419 
Q 3406 3131 3298 2873 
Q 3191 2616 2906 2266 
Q 2828 2175 2409 1742 
Q 1991 1309 1228 531 
z
" transform="scale(0.015625)"/>
       </defs>
       <use xlink:href="#DejaVuSans-32"/>
       <use xlink:href="#DejaVuSans-30" x="63.623047"/>
       <use xlink:href="#DejaVuSans-30" x="127.246094"/>
      </g>
     </g>
    </g>
    <g id="xtick_6">
     <g id="line2d_11">
      <path d="M 302.949 381.9168 
L 302.949 51.4944 
" clip-path="url(#pe581c9705f)" style="fill: none; stroke: #b0b0b0; stroke-width: 0.8; stroke-linecap: square"/>
     </g>
     <g id="line2d_12">
      <g>
       <use xlink:href="#m3c556380eb" x="302.949" y="381.9168" style="stroke: #000000; stroke-width: 0.8"/>
      </g>
     </g>
     <g id="text_6">
      <!-- 250 -->
      <g transform="translate(293.40525 396.515238)scale(0.1 -0.1)">
       <use xlink:href="#DejaVuSans-32"/>
       <use xlink:href="#DejaVuSans-35" x="63.623047"/>
       <use xlink:href="#DejaVuSans-30" x="127.246094"/>
      </g>
     </g>
    </g>
    <g id="xtick_7">
     <g id="line2d_13">
      <path d="M 348.7608 381.9168 
L 348.7608 51.4944 
" clip-path="url(#pe581c9705f)" style="fill: none; stroke: #b0b0b0; stroke-width: 0.8; stroke-linecap: square"/>
     </g>
     <g id="line2d_14">
      <g>
       <use xlink:href="#m3c556380eb" x="348.7608" y="381.9168" style="stroke: #000000; stroke-width: 0.8"/>
      </g>
     </g>
     <g id="text_7">
      <!-- 300 -->
      <g transform="translate(339.21705 396.515238)scale(0.1 -0.1)">
       <defs>
        <path id="DejaVuSans-33" d="M 2597 2516 
Q 3050 2419 3304 2112 
Q 3559 1806 3559 1356 
Q 3559 666 3084 287 
Q 2609 -91 1734 -91 
Q 1441 -91 1130 -33 
Q 819 25 488 141 
L 488 750 
Q 750 597 1062 519 
Q 1375 441 1716 441 
Q 2309 441 2620 675 
Q 2931 909 2931 1356 
Q 2931 1769 2642 2001 
Q 2353 2234 1838 2234 
L 1294 2234 
L 1294 2753 
L 1863 2753 
Q 2328 2753 2575 2939 
Q 2822 3125 2822 3475 
Q 2822 3834 2567 4026 
Q 2313 4219 1838 4219 
Q 1578 4219 1281 4162 
Q 984 4106 628 3988 
L 628 4550 
Q 988 4650 1302 4700 
Q 1616 4750 1894 4750 
Q 2613 4750 3031 4423 
Q 3450 4097 3450 3541 
Q 3450 3153 3228 2886 
Q 3006 2619 2597 2516 
z
" transform="scale(0.015625)"/>
       </defs>
       <use xlink:href="#DejaVuSans-33"/>
       <use xlink:href="#DejaVuSans-30" x="63.623047"/>
       <use xlink:href="#DejaVuSans-30" x="127.246094"/>
      </g>
     </g>
    </g>
    <g id="xtick_8">
     <g id="line2d_15">
      <path d="M 394.5726 381.9168 
L 394.5726 51.4944 
" clip-path="url(#pe581c9705f)" style="fill: none; stroke: #b0b0b0; stroke-width: 0.8; stroke-linecap: square"/>
     </g>
     <g id="line2d_16">
      <g>
       <use xlink:href="#m3c556380eb" x="394.5726" y="381.9168" style="stroke: #000000; stroke-width: 0.8"/>
      </g>
     </g>
     <g id="text_8">
      <!-- 350 -->
      <g transform="translate(385.02885 396.515238)scale(0.1 -0.1)">
       <use xlink:href="#DejaVuSans-33"/>
       <use xlink:href="#DejaVuSans-35" x="63.623047"/>
       <use xlink:href="#DejaVuSans-30" x="127.246094"/>
      </g>
     </g>
    </g>
    <g id="xtick_9">
     <g id="line2d_17">
      <path d="M 440.3844 381.9168 
L 440.3844 51.4944 
" clip-path="url(#pe581c9705f)" style="fill: none; stroke: #b0b0b0; stroke-width: 0.8; stroke-linecap: square"/>
     </g>
     <g id="line2d_18">
      <g>
       <use xlink:href="#m3c556380eb" x="440.3844" y="381.9168" style="stroke: #000000; stroke-width: 0.8"/>
      </g>
     </g>
     <g id="text_9">
      <!-- 400 -->
      <g transform="translate(430.84065 396.515238)scale(0.1 -0.1)">
       <defs>
        <path id="DejaVuSans-34" d="M 2419 4116 
L 825 1625 
L 2419 1625 
L 2419 4116 
z
M 2253 4666 
L 3047 4666 
L 3047 1625 
L 3713 1625 
L 3713 1100 
L 3047 1100 
L 3047 0 
L 2419 0 
L 2419 1100 
L 313 1100 
L 313 1709 
L 2253 4666 
z
" transform="scale(0.015625)"/>
       </defs>
       <use xlink:href="#DejaVuSans-34"/>
       <use xlink:href="#DejaVuSans-30" x="63.623047"/>
       <use xlink:href="#DejaVuSans-30" x="127.246094"/>
      </g>
     </g>
    </g>
    <g id="xtick_10">
     <g id="line2d_19">
      <path d="M 486.1962 381.9168 
L 486.1962 51.4944 
" clip-path="url(#pe581c9705f)" style="fill: none; stroke: #b0b0b0; stroke-width: 0.8; stroke-linecap: square"/>
     </g>
     <g id="line2d_20">
      <g>
       <use xlink:href="#m3c556380eb" x="486.1962" y="381.9168" style="stroke: #000000; stroke-width: 0.8"/>
      </g>
     </g>
     <g id="text_10">
      <!-- 450 -->
      <g transform="translate(476.65245 396.515238)scale(0.1 -0.1)">
       <use xlink:href="#DejaVuSans-34"/>
       <use xlink:href="#DejaVuSans-35" x="63.623047"/>
       <use xlink:href="#DejaVuSans-30" x="127.246094"/>
      </g>
     </g>
    </g>
    <g id="xtick_11">
     <g id="line2d_21">
      <path d="M 532.008 381.9168 
L 532.008 51.4944 
" clip-path="url(#pe581c9705f)" style="fill: none; stroke: #b0b0b0; stroke-width: 0.8; stroke-linecap: square"/>
     </g>
     <g id="line2d_22">
      <g>
       <use xlink:href="#m3c556380eb" x="532.008" y="381.9168" style="stroke: #000000; stroke-width: 0.8"/>
      </g>
     </g>
     <g id="text_11">
      <!-- 500 -->
      <g transform="translate(522.46425 396.515238)scale(0.1 -0.1)">
       <use xlink:href="#DejaVuSans-35"/>
       <use xlink:href="#DejaVuSans-30" x="63.623047"/>
       <use xlink:href="#DejaVuSans-30" x="127.246094"/>
      </g>
     </g>
    </g>
    <g id="text_12">
     <!-- iteration -->
     <g transform="translate(281.826344 410.193363)scale(0.1 -0.1)">
      <defs>
       <path id="DejaVuSans-69" d="M 603 3500 
L 1178 3500 
L 1178 0 
L 603 0 
L 603 3500 
z
M 603 4863 
L 1178 4863 
L 1178 4134 
L 603 4134 
L 603 4863 
z
" transform="scale(0.015625)"/>
       <path id="DejaVuSans-74" d="M 1172 4494 
L 1172 3500 
L 2356 3500 
L 2356 3053 
L 1172 3053 
L 1172 1153 
Q 1172 725 1289 603 
Q 1406 481 1766 481 
L 2356 481 
L 2356 0 
L 1766 0 
Q 1100 0 847 248 
Q 594 497 594 1153 
L 594 3053 
L 172 3053 
L 172 3500 
L 594 3500 
L 594 4494 
L 1172 4494 
z
" transform="scale(0.015625)"/>
       <path id="DejaVuSans-65" d="M 3597 1894 
L 3597 1613 
L 953 1613 
Q 991 1019 1311 708 
Q 1631 397 2203 397 
Q 2534 397 2845 478 
Q 3156 559 3463 722 
L 3463 178 
Q 3153 47 2828 -22 
Q 2503 -91 2169 -91 
Q 1331 -91 842 396 
Q 353 884 353 1716 
Q 353 2575 817 3079 
Q 1281 3584 2069 3584 
Q 2775 3584 3186 3129 
Q 3597 2675 3597 1894 
z
M 3022 2063 
Q 3016 2534 2758 2815 
Q 2500 3097 2075 3097 
Q 1594 3097 1305 2825 
Q 1016 2553 972 2059 
L 3022 2063 
z
" transform="scale(0.015625)"/>
       <path id="DejaVuSans-72" d="M 2631 2963 
Q 2534 3019 2420 3045 
Q 2306 3072 2169 3072 
Q 1681 3072 1420 2755 
Q 1159 2438 1159 1844 
L 1159 0 
L 581 0 
L 581 3500 
L 1159 3500 
L 1159 2956 
Q 1341 3275 1631 3429 
Q 1922 3584 2338 3584 
Q 2397 3584 2469 3576 
Q 2541 3569 2628 3553 
L 2631 2963 
z
" transform="scale(0.015625)"/>
       <path id="DejaVuSans-61" d="M 2194 1759 
Q 1497 1759 1228 1600 
Q 959 1441 959 1056 
Q 959 750 1161 570 
Q 1363 391 1709 391 
Q 2188 391 2477 730 
Q 2766 1069 2766 1631 
L 2766 1759 
L 2194 1759 
z
M 3341 1997 
L 3341 0 
L 2766 0 
L 2766 531 
Q 2569 213 2275 61 
Q 1981 -91 1556 -91 
Q 1019 -91 701 211 
Q 384 513 384 1019 
Q 384 1609 779 1909 
Q 1175 2209 1959 2209 
L 2766 2209 
L 2766 2266 
Q 2766 2663 2505 2880 
Q 2244 3097 1772 3097 
Q 1472 3097 1187 3025 
Q 903 2953 641 2809 
L 641 3341 
Q 956 3463 1253 3523 
Q 1550 3584 1831 3584 
Q 2591 3584 2966 3190 
Q 3341 2797 3341 1997 
z
" transform="scale(0.015625)"/>
       <path id="DejaVuSans-6f" d="M 1959 3097 
Q 1497 3097 1228 2736 
Q 959 2375 959 1747 
Q 959 1119 1226 758 
Q 1494 397 1959 397 
Q 2419 397 2687 759 
Q 2956 1122 2956 1747 
Q 2956 2369 2687 2733 
Q 2419 3097 1959 3097 
z
M 1959 3584 
Q 2709 3584 3137 3096 
Q 3566 2609 3566 1747 
Q 3566 888 3137 398 
Q 2709 -91 1959 -91 
Q 1206 -91 779 398 
Q 353 888 353 1747 
Q 353 2609 779 3096 
Q 1206 3584 1959 3584 
z
" transform="scale(0.015625)"/>
       <path id="DejaVuSans-6e" d="M 3513 2113 
L 3513 0 
L 2938 0 
L 2938 2094 
Q 2938 2591 2744 2837 
Q 2550 3084 2163 3084 
Q 1697 3084 1428 2787 
Q 1159 2491 1159 1978 
L 1159 0 
L 581 0 
L 581 3500 
L 1159 3500 
L 1159 2956 
Q 1366 3272 1645 3428 
Q 1925 3584 2291 3584 
Q 2894 3584 3203 3211 
Q 3513 2838 3513 2113 
z
" transform="scale(0.015625)"/>
      </defs>
      <use xlink:href="#DejaVuSans-69"/>
      <use xlink:href="#DejaVuSans-74" x="27.783203"/>
      <use xlink:href="#DejaVuSans-65" x="66.992188"/>
      <use xlink:href="#DejaVuSans-72" x="128.515625"/>
      <use xlink:href="#DejaVuSans-61" x="169.628906"/>
      <use xlink:href="#DejaVuSans-74" x="230.908203"/>
      <use xlink:href="#DejaVuSans-69" x="270.117188"/>
      <use xlink:href="#DejaVuSans-6f" x="297.900391"/>
      <use xlink:href="#DejaVuSans-6e" x="359.082031"/>
     </g>
    </g>
   </g>
   <g id="matplotlib.axis_2">
    <g id="ytick_1">
     <g id="line2d_23">
      <path d="M 73.89 381.9168 
L 532.008 381.9168 
" clip-path="url(#pe581c9705f)" style="fill: none; stroke: #b0b0b0; stroke-width: 0.8; stroke-linecap: square"/>
     </g>
     <g id="line2d_24">
      <defs>
       <path id="ma5d79b73ff" d="M 0 0 
L -3.5 0 
" style="stroke: #000000; stroke-width: 0.8"/>
      </defs>
      <g>
       <use xlink:href="#ma5d79b73ff" x="73.89" y="381.9168" style="stroke: #000000; stroke-width: 0.8"/>
      </g>
     </g>
     <g id="text_13">
      <!-- 0 -->
      <g transform="translate(60.5275 385.716019)scale(0.1 -0.1)">
       <use xlink:href="#DejaVuSans-30"/>
      </g>
     </g>
    </g>
    <g id="ytick_2">
     <g id="line2d_25">
      <path d="M 73.89 345.2032 
L 532.008 345.2032 
" clip-path="url(#pe581c9705f)" style="fill: none; stroke: #b0b0b0; stroke-width: 0.8; stroke-linecap: square"/>
     </g>
     <g id="line2d_26">
      <g>
       <use xlink:href="#ma5d79b73ff" x="73.89" y="345.2032" style="stroke: #000000; stroke-width: 0.8"/>
      </g>
     </g>
     <g id="text_14">
      <!-- 1 -->
      <g transform="translate(60.5275 349.002419)scale(0.1 -0.1)">
       <use xlink:href="#DejaVuSans-31"/>
      </g>
     </g>
    </g>
    <g id="ytick_3">
     <g id="line2d_27">
      <path d="M 73.89 308.4896 
L 532.008 308.4896 
" clip-path="url(#pe581c9705f)" style="fill: none; stroke: #b0b0b0; stroke-width: 0.8; stroke-linecap: square"/>
     </g>
     <g id="line2d_28">
      <g>
       <use xlink:href="#ma5d79b73ff" x="73.89" y="308.4896" style="stroke: #000000; stroke-width: 0.8"/>
      </g>
     </g>
     <g id="text_15">
      <!-- 2 -->
      <g transform="translate(60.5275 312.288819)scale(0.1 -0.1)">
       <use xlink:href="#DejaVuSans-32"/>
      </g>
     </g>
    </g>
    <g id="ytick_4">
     <g id="line2d_29">
      <path d="M 73.89 271.776 
L 532.008 271.776 
" clip-path="url(#pe581c9705f)" style="fill: none; stroke: #b0b0b0; stroke-width: 0.8; stroke-linecap: square"/>
     </g>
     <g id="line2d_30">
      <g>
       <use xlink:href="#ma5d79b73ff" x="73.89" y="271.776" style="stroke: #000000; stroke-width: 0.8"/>
      </g>
     </g>
     <g id="text_16">
      <!-- 3 -->
      <g transform="translate(60.5275 275.575219)scale(0.1 -0.1)">
       <use xlink:href="#DejaVuSans-33"/>
      </g>
     </g>
    </g>
    <g id="ytick_5">
     <g id="line2d_31">
      <path d="M 73.89 235.0624 
L 532.008 235.0624 
" clip-path="url(#pe581c9705f)" style="fill: none; stroke: #b0b0b0; stroke-width: 0.8; stroke-linecap: square"/>
     </g>
     <g id="line2d_32">
      <g>
       <use xlink:href="#ma5d79b73ff" x="73.89" y="235.0624" style="stroke: #000000; stroke-width: 0.8"/>
      </g>
     </g>
     <g id="text_17">
      <!-- 4 -->
      <g transform="translate(60.5275 238.861619)scale(0.1 -0.1)">
       <use xlink:href="#DejaVuSans-34"/>
      </g>
     </g>
    </g>
    <g id="ytick_6">
     <g id="line2d_33">
      <path d="M 73.89 198.3488 
L 532.008 198.3488 
" clip-path="url(#pe581c9705f)" style="fill: none; stroke: #b0b0b0; stroke-width: 0.8; stroke-linecap: square"/>
     </g>
     <g id="line2d_34">
      <g>
       <use xlink:href="#ma5d79b73ff" x="73.89" y="198.3488" style="stroke: #000000; stroke-width: 0.8"/>
      </g>
     </g>
     <g id="text_18">
      <!-- 5 -->
      <g transform="translate(60.5275 202.148019)scale(0.1 -0.1)">
       <use xlink:href="#DejaVuSans-35"/>
      </g>
     </g>
    </g>
    <g id="ytick_7">
     <g id="line2d_35">
      <path d="M 73.89 161.6352 
L 532.008 161.6352 
" clip-path="url(#pe581c9705f)" style="fill: none; stroke: #b0b0b0; stroke-width: 0.8; stroke-linecap: square"/>
     </g>
     <g id="line2d_36">
      <g>
       <use xlink:href="#ma5d79b73ff" x="73.89" y="161.6352" style="stroke: #000000; stroke-width: 0.8"/>
      </g>
     </g>
     <g id="text_19">
      <!-- 6 -->
      <g transform="translate(60.5275 165.434419)scale(0.1 -0.1)">
       <defs>
        <path id="DejaVuSans-36" d="M 2113 2584 
Q 1688 2584 1439 2293 
Q 1191 2003 1191 1497 
Q 1191 994 1439 701 
Q 1688 409 2113 409 
Q 2538 409 2786 701 
Q 3034 994 3034 1497 
Q 3034 2003 2786 2293 
Q 2538 2584 2113 2584 
z
M 3366 4563 
L 3366 3988 
Q 3128 4100 2886 4159 
Q 2644 4219 2406 4219 
Q 1781 4219 1451 3797 
Q 1122 3375 1075 2522 
Q 1259 2794 1537 2939 
Q 1816 3084 2150 3084 
Q 2853 3084 3261 2657 
Q 3669 2231 3669 1497 
Q 3669 778 3244 343 
Q 2819 -91 2113 -91 
Q 1303 -91 875 529 
Q 447 1150 447 2328 
Q 447 3434 972 4092 
Q 1497 4750 2381 4750 
Q 2619 4750 2861 4703 
Q 3103 4656 3366 4563 
z
" transform="scale(0.015625)"/>
       </defs>
       <use xlink:href="#DejaVuSans-36"/>
      </g>
     </g>
    </g>
    <g id="ytick_8">
     <g id="line2d_37">
      <path d="M 73.89 124.9216 
L 532.008 124.9216 
" clip-path="url(#pe581c9705f)" style="fill: none; stroke: #b0b0b0; stroke-width: 0.8; stroke-linecap: square"/>
     </g>
     <g id="line2d_38">
      <g>
       <use xlink:href="#ma5d79b73ff" x="73.89" y="124.9216" style="stroke: #000000; stroke-width: 0.8"/>
      </g>
     </g>
     <g id="text_20">
      <!-- 7 -->
      <g transform="translate(60.5275 128.720819)scale(0.1 -0.1)">
       <defs>
        <path id="DejaVuSans-37" d="M 525 4666 
L 3525 4666 
L 3525 4397 
L 1831 0 
L 1172 0 
L 2766 4134 
L 525 4134 
L 525 4666 
z
" transform="scale(0.015625)"/>
       </defs>
       <use xlink:href="#DejaVuSans-37"/>
      </g>
     </g>
    </g>
    <g id="ytick_9">
     <g id="line2d_39">
      <path d="M 73.89 88.208 
L 532.008 88.208 
" clip-path="url(#pe581c9705f)" style="fill: none; stroke: #b0b0b0; stroke-width: 0.8; stroke-linecap: square"/>
     </g>
     <g id="line2d_40">
      <g>
       <use xlink:href="#ma5d79b73ff" x="73.89" y="88.208" style="stroke: #000000; stroke-width: 0.8"/>
      </g>
     </g>
     <g id="text_21">
      <!-- 8 -->
      <g transform="translate(60.5275 92.007219)scale(0.1 -0.1)">
       <defs>
        <path id="DejaVuSans-38" d="M 2034 2216 
Q 1584 2216 1326 1975 
Q 1069 1734 1069 1313 
Q 1069 891 1326 650 
Q 1584 409 2034 409 
Q 2484 409 2743 651 
Q 3003 894 3003 1313 
Q 3003 1734 2745 1975 
Q 2488 2216 2034 2216 
z
M 1403 2484 
Q 997 2584 770 2862 
Q 544 3141 544 3541 
Q 544 4100 942 4425 
Q 1341 4750 2034 4750 
Q 2731 4750 3128 4425 
Q 3525 4100 3525 3541 
Q 3525 3141 3298 2862 
Q 3072 2584 2669 2484 
Q 3125 2378 3379 2068 
Q 3634 1759 3634 1313 
Q 3634 634 3220 271 
Q 2806 -91 2034 -91 
Q 1263 -91 848 271 
Q 434 634 434 1313 
Q 434 1759 690 2068 
Q 947 2378 1403 2484 
z
M 1172 3481 
Q 1172 3119 1398 2916 
Q 1625 2713 2034 2713 
Q 2441 2713 2670 2916 
Q 2900 3119 2900 3481 
Q 2900 3844 2670 4047 
Q 2441 4250 2034 4250 
Q 1625 4250 1398 4047 
Q 1172 3844 1172 3481 
z
" transform="scale(0.015625)"/>
       </defs>
       <use xlink:href="#DejaVuSans-38"/>
      </g>
     </g>
    </g>
    <g id="ytick_10">
     <g id="line2d_41">
      <path d="M 73.89 51.4944 
L 532.008 51.4944 
" clip-path="url(#pe581c9705f)" style="fill: none; stroke: #b0b0b0; stroke-width: 0.8; stroke-linecap: square"/>
     </g>
     <g id="line2d_42">
      <g>
       <use xlink:href="#ma5d79b73ff" x="73.89" y="51.4944" style="stroke: #000000; stroke-width: 0.8"/>
      </g>
     </g>
     <g id="text_22">
      <!-- 9 -->
      <g transform="translate(60.5275 55.293619)scale(0.1 -0.1)">
       <defs>
        <path id="DejaVuSans-39" d="M 703 97 
L 703 672 
Q 941 559 1184 500 
Q 1428 441 1663 441 
Q 2288 441 2617 861 
Q 2947 1281 2994 2138 
Q 2813 1869 2534 1725 
Q 2256 1581 1919 1581 
Q 1219 1581 811 2004 
Q 403 2428 403 3163 
Q 403 3881 828 4315 
Q 1253 4750 1959 4750 
Q 2769 4750 3195 4129 
Q 3622 3509 3622 2328 
Q 3622 1225 3098 567 
Q 2575 -91 1691 -91 
Q 1453 -91 1209 -44 
Q 966 3 703 97 
z
M 1959 2075 
Q 2384 2075 2632 2365 
Q 2881 2656 2881 3163 
Q 2881 3666 2632 3958 
Q 2384 4250 1959 4250 
Q 1534 4250 1286 3958 
Q 1038 3666 1038 3163 
Q 1038 2656 1286 2365 
Q 1534 2075 1959 2075 
z
" transform="scale(0.015625)"/>
       </defs>
       <use xlink:href="#DejaVuSans-39"/>
      </g>
     </g>
    </g>
    <g id="text_23">
     <!-- Power consumption -->
     <g transform="translate(54.447813 265.781381)rotate(-90)scale(0.1 -0.1)">
      <defs>
       <path id="DejaVuSans-50" d="M 1259 4147 
L 1259 2394 
L 2053 2394 
Q 2494 2394 2734 2622 
Q 2975 2850 2975 3272 
Q 2975 3691 2734 3919 
Q 2494 4147 2053 4147 
L 1259 4147 
z
M 628 4666 
L 2053 4666 
Q 2838 4666 3239 4311 
Q 3641 3956 3641 3272 
Q 3641 2581 3239 2228 
Q 2838 1875 2053 1875 
L 1259 1875 
L 1259 0 
L 628 0 
L 628 4666 
z
" transform="scale(0.015625)"/>
       <path id="DejaVuSans-77" d="M 269 3500 
L 844 3500 
L 1563 769 
L 2278 3500 
L 2956 3500 
L 3675 769 
L 4391 3500 
L 4966 3500 
L 4050 0 
L 3372 0 
L 2619 2869 
L 1863 0 
L 1184 0 
L 269 3500 
z
" transform="scale(0.015625)"/>
       <path id="DejaVuSans-20" transform="scale(0.015625)"/>
       <path id="DejaVuSans-63" d="M 3122 3366 
L 3122 2828 
Q 2878 2963 2633 3030 
Q 2388 3097 2138 3097 
Q 1578 3097 1268 2742 
Q 959 2388 959 1747 
Q 959 1106 1268 751 
Q 1578 397 2138 397 
Q 2388 397 2633 464 
Q 2878 531 3122 666 
L 3122 134 
Q 2881 22 2623 -34 
Q 2366 -91 2075 -91 
Q 1284 -91 818 406 
Q 353 903 353 1747 
Q 353 2603 823 3093 
Q 1294 3584 2113 3584 
Q 2378 3584 2631 3529 
Q 2884 3475 3122 3366 
z
" transform="scale(0.015625)"/>
       <path id="DejaVuSans-73" d="M 2834 3397 
L 2834 2853 
Q 2591 2978 2328 3040 
Q 2066 3103 1784 3103 
Q 1356 3103 1142 2972 
Q 928 2841 928 2578 
Q 928 2378 1081 2264 
Q 1234 2150 1697 2047 
L 1894 2003 
Q 2506 1872 2764 1633 
Q 3022 1394 3022 966 
Q 3022 478 2636 193 
Q 2250 -91 1575 -91 
Q 1294 -91 989 -36 
Q 684 19 347 128 
L 347 722 
Q 666 556 975 473 
Q 1284 391 1588 391 
Q 1994 391 2212 530 
Q 2431 669 2431 922 
Q 2431 1156 2273 1281 
Q 2116 1406 1581 1522 
L 1381 1569 
Q 847 1681 609 1914 
Q 372 2147 372 2553 
Q 372 3047 722 3315 
Q 1072 3584 1716 3584 
Q 2034 3584 2315 3537 
Q 2597 3491 2834 3397 
z
" transform="scale(0.015625)"/>
       <path id="DejaVuSans-75" d="M 544 1381 
L 544 3500 
L 1119 3500 
L 1119 1403 
Q 1119 906 1312 657 
Q 1506 409 1894 409 
Q 2359 409 2629 706 
Q 2900 1003 2900 1516 
L 2900 3500 
L 3475 3500 
L 3475 0 
L 2900 0 
L 2900 538 
Q 2691 219 2414 64 
Q 2138 -91 1772 -91 
Q 1169 -91 856 284 
Q 544 659 544 1381 
z
M 1991 3584 
L 1991 3584 
z
" transform="scale(0.015625)"/>
       <path id="DejaVuSans-6d" d="M 3328 2828 
Q 3544 3216 3844 3400 
Q 4144 3584 4550 3584 
Q 5097 3584 5394 3201 
Q 5691 2819 5691 2113 
L 5691 0 
L 5113 0 
L 5113 2094 
Q 5113 2597 4934 2840 
Q 4756 3084 4391 3084 
Q 3944 3084 3684 2787 
Q 3425 2491 3425 1978 
L 3425 0 
L 2847 0 
L 2847 2094 
Q 2847 2600 2669 2842 
Q 2491 3084 2119 3084 
Q 1678 3084 1418 2786 
Q 1159 2488 1159 1978 
L 1159 0 
L 581 0 
L 581 3500 
L 1159 3500 
L 1159 2956 
Q 1356 3278 1631 3431 
Q 1906 3584 2284 3584 
Q 2666 3584 2933 3390 
Q 3200 3197 3328 2828 
z
" transform="scale(0.015625)"/>
       <path id="DejaVuSans-70" d="M 1159 525 
L 1159 -1331 
L 581 -1331 
L 581 3500 
L 1159 3500 
L 1159 2969 
Q 1341 3281 1617 3432 
Q 1894 3584 2278 3584 
Q 2916 3584 3314 3078 
Q 3713 2572 3713 1747 
Q 3713 922 3314 415 
Q 2916 -91 2278 -91 
Q 1894 -91 1617 61 
Q 1341 213 1159 525 
z
M 3116 1747 
Q 3116 2381 2855 2742 
Q 2594 3103 2138 3103 
Q 1681 3103 1420 2742 
Q 1159 2381 1159 1747 
Q 1159 1113 1420 752 
Q 1681 391 2138 391 
Q 2594 391 2855 752 
Q 3116 1113 3116 1747 
z
" transform="scale(0.015625)"/>
      </defs>
      <use xlink:href="#DejaVuSans-50"/>
      <use xlink:href="#DejaVuSans-6f" x="56.677734"/>
      <use xlink:href="#DejaVuSans-77" x="117.859375"/>
      <use xlink:href="#DejaVuSans-65" x="199.646484"/>
      <use xlink:href="#DejaVuSans-72" x="261.169922"/>
      <use xlink:href="#DejaVuSans-20" x="302.283203"/>
      <use xlink:href="#DejaVuSans-63" x="334.070312"/>
      <use xlink:href="#DejaVuSans-6f" x="389.050781"/>
      <use xlink:href="#DejaVuSans-6e" x="450.232422"/>
      <use xlink:href="#DejaVuSans-73" x="513.611328"/>
      <use xlink:href="#DejaVuSans-75" x="565.710938"/>
      <use xlink:href="#DejaVuSans-6d" x="629.089844"/>
      <use xlink:href="#DejaVuSans-70" x="726.501953"/>
      <use xlink:href="#DejaVuSans-74" x="789.978516"/>
      <use xlink:href="#DejaVuSans-69" x="829.1875"/>
      <use xlink:href="#DejaVuSans-6f" x="856.970703"/>
      <use xlink:href="#DejaVuSans-6e" x="918.152344"/>
     </g>
    </g>
   </g>
   <g id="line2d_43">
    <path d="M 73.89 183.138854 
L 83.05236 195.089837 
L 92.21472 199.261994 
L 101.37708 205.233851 
L 110.53944 208.507479 
L 119.7018 208.158314 
L 128.86416 205.895503 
L 138.02652 203.545669 
L 147.18888 202.081063 
L 156.35124 201.647727 
L 165.5136 201.894632 
L 174.67596 202.336067 
L 183.83832 202.662773 
L 193.00068 202.904576 
L 202.16304 203.35935 
L 211.3254 204.321995 
L 220.48776 205.791655 
L 229.65012 207.37573 
L 238.81248 208.490294 
L 247.97484 208.747298 
L 257.1372 208.266226 
L 266.29956 207.672256 
L 275.46192 207.746784 
L 284.62428 208.948156 
L 293.78664 211.135487 
L 302.949 213.70056 
L 312.11136 216.011343 
L 321.27372 217.818281 
L 330.43608 219.29389 
L 339.59844 220.694204 
L 348.7608 222.00138 
L 357.92316 222.966149 
L 367.08552 223.569691 
L 376.24788 224.381766 
L 385.41024 226.222444 
L 394.5726 229.243582 
L 403.73496 232.448821 
L 412.89732 234.560389 
L 422.05968 235.571048 
L 431.22204 236.893564 
L 440.3844 239.303681 
L 449.54676 241.440429 
L 458.70912 242.009642 
L 467.87148 242.509359 
L 477.03384 244.126512 
L 486.1962 244.971839 
L 495.35856 247.103036 
L 504.52092 248.20461 
L 513.68328 248.923983 
L 522.84564 250.928784 
L 532.008 251.914815 
" clip-path="url(#pe581c9705f)" style="fill: none; stroke: #bf00bf; stroke-width: 3; stroke-linecap: square"/>
    <defs>
     <path id="m3554678256" d="M 0 -0.5 
L -0.112257 -0.154508 
L -0.475528 -0.154508 
L -0.181636 0.059017 
L -0.293893 0.404508 
L -0 0.190983 
L 0.293893 0.404508 
L 0.181636 0.059017 
L 0.475528 -0.154508 
L 0.112257 -0.154508 
z
" style="stroke: #bf00bf; stroke-linejoin: bevel"/>
    </defs>
    <g clip-path="url(#pe581c9705f)">
     <use xlink:href="#m3554678256" x="73.89" y="183.138854" style="fill: #bf00bf; stroke: #bf00bf; stroke-linejoin: bevel"/>
     <use xlink:href="#m3554678256" x="83.05236" y="195.089837" style="fill: #bf00bf; stroke: #bf00bf; stroke-linejoin: bevel"/>
     <use xlink:href="#m3554678256" x="92.21472" y="199.261994" style="fill: #bf00bf; stroke: #bf00bf; stroke-linejoin: bevel"/>
     <use xlink:href="#m3554678256" x="101.37708" y="205.233851" style="fill: #bf00bf; stroke: #bf00bf; stroke-linejoin: bevel"/>
     <use xlink:href="#m3554678256" x="110.53944" y="208.507479" style="fill: #bf00bf; stroke: #bf00bf; stroke-linejoin: bevel"/>
     <use xlink:href="#m3554678256" x="119.7018" y="208.158314" style="fill: #bf00bf; stroke: #bf00bf; stroke-linejoin: bevel"/>
     <use xlink:href="#m3554678256" x="128.86416" y="205.895503" style="fill: #bf00bf; stroke: #bf00bf; stroke-linejoin: bevel"/>
     <use xlink:href="#m3554678256" x="138.02652" y="203.545669" style="fill: #bf00bf; stroke: #bf00bf; stroke-linejoin: bevel"/>
     <use xlink:href="#m3554678256" x="147.18888" y="202.081063" style="fill: #bf00bf; stroke: #bf00bf; stroke-linejoin: bevel"/>
     <use xlink:href="#m3554678256" x="156.35124" y="201.647727" style="fill: #bf00bf; stroke: #bf00bf; stroke-linejoin: bevel"/>
     <use xlink:href="#m3554678256" x="165.5136" y="201.894632" style="fill: #bf00bf; stroke: #bf00bf; stroke-linejoin: bevel"/>
     <use xlink:href="#m3554678256" x="174.67596" y="202.336067" style="fill: #bf00bf; stroke: #bf00bf; stroke-linejoin: bevel"/>
     <use xlink:href="#m3554678256" x="183.83832" y="202.662773" style="fill: #bf00bf; stroke: #bf00bf; stroke-linejoin: bevel"/>
     <use xlink:href="#m3554678256" x="193.00068" y="202.904576" style="fill: #bf00bf; stroke: #bf00bf; stroke-linejoin: bevel"/>
     <use xlink:href="#m3554678256" x="202.16304" y="203.35935" style="fill: #bf00bf; stroke: #bf00bf; stroke-linejoin: bevel"/>
     <use xlink:href="#m3554678256" x="211.3254" y="204.321995" style="fill: #bf00bf; stroke: #bf00bf; stroke-linejoin: bevel"/>
     <use xlink:href="#m3554678256" x="220.48776" y="205.791655" style="fill: #bf00bf; stroke: #bf00bf; stroke-linejoin: bevel"/>
     <use xlink:href="#m3554678256" x="229.65012" y="207.37573" style="fill: #bf00bf; stroke: #bf00bf; stroke-linejoin: bevel"/>
     <use xlink:href="#m3554678256" x="238.81248" y="208.490294" style="fill: #bf00bf; stroke: #bf00bf; stroke-linejoin: bevel"/>
     <use xlink:href="#m3554678256" x="247.97484" y="208.747298" style="fill: #bf00bf; stroke: #bf00bf; stroke-linejoin: bevel"/>
     <use xlink:href="#m3554678256" x="257.1372" y="208.266226" style="fill: #bf00bf; stroke: #bf00bf; stroke-linejoin: bevel"/>
     <use xlink:href="#m3554678256" x="266.29956" y="207.672256" style="fill: #bf00bf; stroke: #bf00bf; stroke-linejoin: bevel"/>
     <use xlink:href="#m3554678256" x="275.46192" y="207.746784" style="fill: #bf00bf; stroke: #bf00bf; stroke-linejoin: bevel"/>
     <use xlink:href="#m3554678256" x="284.62428" y="208.948156" style="fill: #bf00bf; stroke: #bf00bf; stroke-linejoin: bevel"/>
     <use xlink:href="#m3554678256" x="293.78664" y="211.135487" style="fill: #bf00bf; stroke: #bf00bf; stroke-linejoin: bevel"/>
     <use xlink:href="#m3554678256" x="302.949" y="213.70056" style="fill: #bf00bf; stroke: #bf00bf; stroke-linejoin: bevel"/>
     <use xlink:href="#m3554678256" x="312.11136" y="216.011343" style="fill: #bf00bf; stroke: #bf00bf; stroke-linejoin: bevel"/>
     <use xlink:href="#m3554678256" x="321.27372" y="217.818281" style="fill: #bf00bf; stroke: #bf00bf; stroke-linejoin: bevel"/>
     <use xlink:href="#m3554678256" x="330.43608" y="219.29389" style="fill: #bf00bf; stroke: #bf00bf; stroke-linejoin: bevel"/>
     <use xlink:href="#m3554678256" x="339.59844" y="220.694204" style="fill: #bf00bf; stroke: #bf00bf; stroke-linejoin: bevel"/>
     <use xlink:href="#m3554678256" x="348.7608" y="222.00138" style="fill: #bf00bf; stroke: #bf00bf; stroke-linejoin: bevel"/>
     <use xlink:href="#m3554678256" x="357.92316" y="222.966149" style="fill: #bf00bf; stroke: #bf00bf; stroke-linejoin: bevel"/>
     <use xlink:href="#m3554678256" x="367.08552" y="223.569691" style="fill: #bf00bf; stroke: #bf00bf; stroke-linejoin: bevel"/>
     <use xlink:href="#m3554678256" x="376.24788" y="224.381766" style="fill: #bf00bf; stroke: #bf00bf; stroke-linejoin: bevel"/>
     <use xlink:href="#m3554678256" x="385.41024" y="226.222444" style="fill: #bf00bf; stroke: #bf00bf; stroke-linejoin: bevel"/>
     <use xlink:href="#m3554678256" x="394.5726" y="229.243582" style="fill: #bf00bf; stroke: #bf00bf; stroke-linejoin: bevel"/>
     <use xlink:href="#m3554678256" x="403.73496" y="232.448821" style="fill: #bf00bf; stroke: #bf00bf; stroke-linejoin: bevel"/>
     <use xlink:href="#m3554678256" x="412.89732" y="234.560389" style="fill: #bf00bf; stroke: #bf00bf; stroke-linejoin: bevel"/>
     <use xlink:href="#m3554678256" x="422.05968" y="235.571048" style="fill: #bf00bf; stroke: #bf00bf; stroke-linejoin: bevel"/>
     <use xlink:href="#m3554678256" x="431.22204" y="236.893564" style="fill: #bf00bf; stroke: #bf00bf; stroke-linejoin: bevel"/>
     <use xlink:href="#m3554678256" x="440.3844" y="239.303681" style="fill: #bf00bf; stroke: #bf00bf; stroke-linejoin: bevel"/>
     <use xlink:href="#m3554678256" x="449.54676" y="241.440429" style="fill: #bf00bf; stroke: #bf00bf; stroke-linejoin: bevel"/>
     <use xlink:href="#m3554678256" x="458.70912" y="242.009642" style="fill: #bf00bf; stroke: #bf00bf; stroke-linejoin: bevel"/>
     <use xlink:href="#m3554678256" x="467.87148" y="242.509359" style="fill: #bf00bf; stroke: #bf00bf; stroke-linejoin: bevel"/>
     <use xlink:href="#m3554678256" x="477.03384" y="244.126512" style="fill: #bf00bf; stroke: #bf00bf; stroke-linejoin: bevel"/>
     <use xlink:href="#m3554678256" x="486.1962" y="244.971839" style="fill: #bf00bf; stroke: #bf00bf; stroke-linejoin: bevel"/>
     <use xlink:href="#m3554678256" x="495.35856" y="247.103036" style="fill: #bf00bf; stroke: #bf00bf; stroke-linejoin: bevel"/>
     <use xlink:href="#m3554678256" x="504.52092" y="248.20461" style="fill: #bf00bf; stroke: #bf00bf; stroke-linejoin: bevel"/>
     <use xlink:href="#m3554678256" x="513.68328" y="248.923983" style="fill: #bf00bf; stroke: #bf00bf; stroke-linejoin: bevel"/>
     <use xlink:href="#m3554678256" x="522.84564" y="250.928784" style="fill: #bf00bf; stroke: #bf00bf; stroke-linejoin: bevel"/>
     <use xlink:href="#m3554678256" x="532.008" y="251.914815" style="fill: #bf00bf; stroke: #bf00bf; stroke-linejoin: bevel"/>
    </g>
   </g>
   <g id="line2d_44">
    <path d="M 73.89 183.190617 
L 83.05236 197.863124 
L 92.21472 204.973579 
L 101.37708 211.621929 
L 110.53944 222.345255 
L 119.7018 233.927825 
L 128.86416 242.796673 
L 138.02652 248.891912 
L 147.18888 254.052828 
L 156.35124 258.826528 
L 165.5136 261.296873 
L 174.67596 258.669955 
L 183.83832 249.929339 
L 193.00068 237.301564 
L 202.16304 225.399101 
L 211.3254 218.64566 
L 220.48776 218.737126 
L 229.65012 223.802144 
L 238.81248 229.765783 
L 247.97484 232.981038 
L 257.1372 232.394499 
L 266.29956 229.853275 
L 275.46192 228.42016 
L 284.62428 229.922827 
L 293.78664 233.497918 
L 302.949 236.18573 
L 312.11136 235.11894 
L 321.27372 229.608346 
L 330.43608 221.464404 
L 339.59844 213.319967 
L 348.7608 206.477793 
L 357.92316 200.324798 
L 367.08552 193.896028 
L 376.24788 187.835907 
L 385.41024 184.202732 
L 394.5726 183.763595 
L 403.73496 183.898628 
L 412.89732 180.668405 
L 422.05968 173.782146 
L 431.22204 167.847493 
L 440.3844 166.229014 
L 449.54676 165.236826 
L 458.70912 159.403809 
L 467.87148 149.97704 
L 477.03384 136.774546 
L 486.1962 110.971557 
L 495.35856 82.380373 
L 504.52092 61.952167 
L 513.68328 50.79623 
L 522.84564 52.318339 
L 532.008 51.636984 
" clip-path="url(#pe581c9705f)" style="fill: none; stroke-dasharray: 12.95,5.6; stroke-dashoffset: 0; stroke: #bf00bf; stroke-width: 3.5"/>
    <defs>
     <path id="md718d87d23" d="M 0 0.25 
C 0.066301 0.25 0.129895 0.223658 0.176777 0.176777 
C 0.223658 0.129895 0.25 0.066301 0.25 0 
C 0.25 -0.066301 0.223658 -0.129895 0.176777 -0.176777 
C 0.129895 -0.223658 0.066301 -0.25 0 -0.25 
C -0.066301 -0.25 -0.129895 -0.223658 -0.176777 -0.176777 
C -0.223658 -0.129895 -0.25 -0.066301 -0.25 0 
C -0.25 0.066301 -0.223658 0.129895 -0.176777 0.176777 
C -0.129895 0.223658 -0.066301 0.25 0 0.25 
z
" style="stroke: #bf00bf"/>
    </defs>
    <g clip-path="url(#pe581c9705f)">
     <use xlink:href="#md718d87d23" x="73.89" y="183.190617" style="fill: #bf00bf; stroke: #bf00bf"/>
     <use xlink:href="#md718d87d23" x="83.05236" y="197.863124" style="fill: #bf00bf; stroke: #bf00bf"/>
     <use xlink:href="#md718d87d23" x="92.21472" y="204.973579" style="fill: #bf00bf; stroke: #bf00bf"/>
     <use xlink:href="#md718d87d23" x="101.37708" y="211.621929" style="fill: #bf00bf; stroke: #bf00bf"/>
     <use xlink:href="#md718d87d23" x="110.53944" y="222.345255" style="fill: #bf00bf; stroke: #bf00bf"/>
     <use xlink:href="#md718d87d23" x="119.7018" y="233.927825" style="fill: #bf00bf; stroke: #bf00bf"/>
     <use xlink:href="#md718d87d23" x="128.86416" y="242.796673" style="fill: #bf00bf; stroke: #bf00bf"/>
     <use xlink:href="#md718d87d23" x="138.02652" y="248.891912" style="fill: #bf00bf; stroke: #bf00bf"/>
     <use xlink:href="#md718d87d23" x="147.18888" y="254.052828" style="fill: #bf00bf; stroke: #bf00bf"/>
     <use xlink:href="#md718d87d23" x="156.35124" y="258.826528" style="fill: #bf00bf; stroke: #bf00bf"/>
     <use xlink:href="#md718d87d23" x="165.5136" y="261.296873" style="fill: #bf00bf; stroke: #bf00bf"/>
     <use xlink:href="#md718d87d23" x="174.67596" y="258.669955" style="fill: #bf00bf; stroke: #bf00bf"/>
     <use xlink:href="#md718d87d23" x="183.83832" y="249.929339" style="fill: #bf00bf; stroke: #bf00bf"/>
     <use xlink:href="#md718d87d23" x="193.00068" y="237.301564" style="fill: #bf00bf; stroke: #bf00bf"/>
     <use xlink:href="#md718d87d23" x="202.16304" y="225.399101" style="fill: #bf00bf; stroke: #bf00bf"/>
     <use xlink:href="#md718d87d23" x="211.3254" y="218.64566" style="fill: #bf00bf; stroke: #bf00bf"/>
     <use xlink:href="#md718d87d23" x="220.48776" y="218.737126" style="fill: #bf00bf; stroke: #bf00bf"/>
     <use xlink:href="#md718d87d23" x="229.65012" y="223.802144" style="fill: #bf00bf; stroke: #bf00bf"/>
     <use xlink:href="#md718d87d23" x="238.81248" y="229.765783" style="fill: #bf00bf; stroke: #bf00bf"/>
     <use xlink:href="#md718d87d23" x="247.97484" y="232.981038" style="fill: #bf00bf; stroke: #bf00bf"/>
     <use xlink:href="#md718d87d23" x="257.1372" y="232.394499" style="fill: #bf00bf; stroke: #bf00bf"/>
     <use xlink:href="#md718d87d23" x="266.29956" y="229.853275" style="fill: #bf00bf; stroke: #bf00bf"/>
     <use xlink:href="#md718d87d23" x="275.46192" y="228.42016" style="fill: #bf00bf; stroke: #bf00bf"/>
     <use xlink:href="#md718d87d23" x="284.62428" y="229.922827" style="fill: #bf00bf; stroke: #bf00bf"/>
     <use xlink:href="#md718d87d23" x="293.78664" y="233.497918" style="fill: #bf00bf; stroke: #bf00bf"/>
     <use xlink:href="#md718d87d23" x="302.949" y="236.18573" style="fill: #bf00bf; stroke: #bf00bf"/>
     <use xlink:href="#md718d87d23" x="312.11136" y="235.11894" style="fill: #bf00bf; stroke: #bf00bf"/>
     <use xlink:href="#md718d87d23" x="321.27372" y="229.608346" style="fill: #bf00bf; stroke: #bf00bf"/>
     <use xlink:href="#md718d87d23" x="330.43608" y="221.464404" style="fill: #bf00bf; stroke: #bf00bf"/>
     <use xlink:href="#md718d87d23" x="339.59844" y="213.319967" style="fill: #bf00bf; stroke: #bf00bf"/>
     <use xlink:href="#md718d87d23" x="348.7608" y="206.477793" style="fill: #bf00bf; stroke: #bf00bf"/>
     <use xlink:href="#md718d87d23" x="357.92316" y="200.324798" style="fill: #bf00bf; stroke: #bf00bf"/>
     <use xlink:href="#md718d87d23" x="367.08552" y="193.896028" style="fill: #bf00bf; stroke: #bf00bf"/>
     <use xlink:href="#md718d87d23" x="376.24788" y="187.835907" style="fill: #bf00bf; stroke: #bf00bf"/>
     <use xlink:href="#md718d87d23" x="385.41024" y="184.202732" style="fill: #bf00bf; stroke: #bf00bf"/>
     <use xlink:href="#md718d87d23" x="394.5726" y="183.763595" style="fill: #bf00bf; stroke: #bf00bf"/>
     <use xlink:href="#md718d87d23" x="403.73496" y="183.898628" style="fill: #bf00bf; stroke: #bf00bf"/>
     <use xlink:href="#md718d87d23" x="412.89732" y="180.668405" style="fill: #bf00bf; stroke: #bf00bf"/>
     <use xlink:href="#md718d87d23" x="422.05968" y="173.782146" style="fill: #bf00bf; stroke: #bf00bf"/>
     <use xlink:href="#md718d87d23" x="431.22204" y="167.847493" style="fill: #bf00bf; stroke: #bf00bf"/>
     <use xlink:href="#md718d87d23" x="440.3844" y="166.229014" style="fill: #bf00bf; stroke: #bf00bf"/>
     <use xlink:href="#md718d87d23" x="449.54676" y="165.236826" style="fill: #bf00bf; stroke: #bf00bf"/>
     <use xlink:href="#md718d87d23" x="458.70912" y="159.403809" style="fill: #bf00bf; stroke: #bf00bf"/>
     <use xlink:href="#md718d87d23" x="467.87148" y="149.97704" style="fill: #bf00bf; stroke: #bf00bf"/>
     <use xlink:href="#md718d87d23" x="477.03384" y="136.774546" style="fill: #bf00bf; stroke: #bf00bf"/>
     <use xlink:href="#md718d87d23" x="486.1962" y="110.971557" style="fill: #bf00bf; stroke: #bf00bf"/>
     <use xlink:href="#md718d87d23" x="495.35856" y="82.380373" style="fill: #bf00bf; stroke: #bf00bf"/>
     <use xlink:href="#md718d87d23" x="504.52092" y="61.952167" style="fill: #bf00bf; stroke: #bf00bf"/>
     <use xlink:href="#md718d87d23" x="513.68328" y="50.79623" style="fill: #bf00bf; stroke: #bf00bf"/>
     <use xlink:href="#md718d87d23" x="522.84564" y="52.318339" style="fill: #bf00bf; stroke: #bf00bf"/>
     <use xlink:href="#md718d87d23" x="532.008" y="51.636984" style="fill: #bf00bf; stroke: #bf00bf"/>
    </g>
   </g>
   <g id="line2d_45">
    <path d="M 73.89 182.58886 
L 83.05236 220.116461 
L 92.21472 237.054971 
L 101.37708 249.453726 
L 110.53944 257.126092 
L 119.7018 263.139238 
L 128.86416 269.877404 
L 138.02652 277.282409 
L 147.18888 284.414391 
L 156.35124 290.995965 
L 165.5136 297.470997 
L 174.67596 304.16971 
L 183.83832 310.710126 
L 193.00068 316.171199 
L 202.16304 319.77621 
L 211.3254 321.467141 
L 220.48776 321.942378 
L 229.65012 322.190722 
L 238.81248 322.906725 
L 247.97484 324.19619 
L 257.1372 325.71563 
L 266.29956 327.062422 
L 275.46192 328.083192 
L 284.62428 328.886252 
L 293.78664 329.616146 
L 302.949 330.248029 
L 312.11136 330.620497 
L 321.27372 330.678574 
L 330.43608 330.663036 
L 339.59844 330.993841 
L 348.7608 331.887274 
L 357.92316 333.068395 
L 367.08552 333.940571 
L 376.24788 334.149416 
L 385.41024 333.988435 
L 394.5726 334.119861 
L 403.73496 334.797803 
L 412.89732 335.504097 
L 422.05968 335.612669 
L 431.22204 335.357038 
L 440.3844 335.642761 
L 449.54676 336.707409 
L 458.70912 337.718482 
L 467.87148 338.181363 
L 477.03384 338.494499 
L 486.1962 338.965702 
L 495.35856 340.419949 
L 504.52092 340.134264 
L 513.68328 340.049309 
L 522.84564 340.070622 
L 532.008 340.244933 
" clip-path="url(#pe581c9705f)" style="fill: none; stroke: #00ff7f; stroke-width: 3; stroke-linecap: square"/>
    <defs>
     <path id="m6a5c28a75c" d="M -0.25 0.25 
L 0.25 0.25 
L 0.25 -0.25 
L -0.25 -0.25 
z
" style="stroke: #00ff7f; stroke-linejoin: miter"/>
    </defs>
    <g clip-path="url(#pe581c9705f)">
     <use xlink:href="#m6a5c28a75c" x="73.89" y="182.58886" style="fill: #00ff7f; stroke: #00ff7f; stroke-linejoin: miter"/>
     <use xlink:href="#m6a5c28a75c" x="83.05236" y="220.116461" style="fill: #00ff7f; stroke: #00ff7f; stroke-linejoin: miter"/>
     <use xlink:href="#m6a5c28a75c" x="92.21472" y="237.054971" style="fill: #00ff7f; stroke: #00ff7f; stroke-linejoin: miter"/>
     <use xlink:href="#m6a5c28a75c" x="101.37708" y="249.453726" style="fill: #00ff7f; stroke: #00ff7f; stroke-linejoin: miter"/>
     <use xlink:href="#m6a5c28a75c" x="110.53944" y="257.126092" style="fill: #00ff7f; stroke: #00ff7f; stroke-linejoin: miter"/>
     <use xlink:href="#m6a5c28a75c" x="119.7018" y="263.139238" style="fill: #00ff7f; stroke: #00ff7f; stroke-linejoin: miter"/>
     <use xlink:href="#m6a5c28a75c" x="128.86416" y="269.877404" style="fill: #00ff7f; stroke: #00ff7f; stroke-linejoin: miter"/>
     <use xlink:href="#m6a5c28a75c" x="138.02652" y="277.282409" style="fill: #00ff7f; stroke: #00ff7f; stroke-linejoin: miter"/>
     <use xlink:href="#m6a5c28a75c" x="147.18888" y="284.414391" style="fill: #00ff7f; stroke: #00ff7f; stroke-linejoin: miter"/>
     <use xlink:href="#m6a5c28a75c" x="156.35124" y="290.995965" style="fill: #00ff7f; stroke: #00ff7f; stroke-linejoin: miter"/>
     <use xlink:href="#m6a5c28a75c" x="165.5136" y="297.470997" style="fill: #00ff7f; stroke: #00ff7f; stroke-linejoin: miter"/>
     <use xlink:href="#m6a5c28a75c" x="174.67596" y="304.16971" style="fill: #00ff7f; stroke: #00ff7f; stroke-linejoin: miter"/>
     <use xlink:href="#m6a5c28a75c" x="183.83832" y="310.710126" style="fill: #00ff7f; stroke: #00ff7f; stroke-linejoin: miter"/>
     <use xlink:href="#m6a5c28a75c" x="193.00068" y="316.171199" style="fill: #00ff7f; stroke: #00ff7f; stroke-linejoin: miter"/>
     <use xlink:href="#m6a5c28a75c" x="202.16304" y="319.77621" style="fill: #00ff7f; stroke: #00ff7f; stroke-linejoin: miter"/>
     <use xlink:href="#m6a5c28a75c" x="211.3254" y="321.467141" style="fill: #00ff7f; stroke: #00ff7f; stroke-linejoin: miter"/>
     <use xlink:href="#m6a5c28a75c" x="220.48776" y="321.942378" style="fill: #00ff7f; stroke: #00ff7f; stroke-linejoin: miter"/>
     <use xlink:href="#m6a5c28a75c" x="229.65012" y="322.190722" style="fill: #00ff7f; stroke: #00ff7f; stroke-linejoin: miter"/>
     <use xlink:href="#m6a5c28a75c" x="238.81248" y="322.906725" style="fill: #00ff7f; stroke: #00ff7f; stroke-linejoin: miter"/>
     <use xlink:href="#m6a5c28a75c" x="247.97484" y="324.19619" style="fill: #00ff7f; stroke: #00ff7f; stroke-linejoin: miter"/>
     <use xlink:href="#m6a5c28a75c" x="257.1372" y="325.71563" style="fill: #00ff7f; stroke: #00ff7f; stroke-linejoin: miter"/>
     <use xlink:href="#m6a5c28a75c" x="266.29956" y="327.062422" style="fill: #00ff7f; stroke: #00ff7f; stroke-linejoin: miter"/>
     <use xlink:href="#m6a5c28a75c" x="275.46192" y="328.083192" style="fill: #00ff7f; stroke: #00ff7f; stroke-linejoin: miter"/>
     <use xlink:href="#m6a5c28a75c" x="284.62428" y="328.886252" style="fill: #00ff7f; stroke: #00ff7f; stroke-linejoin: miter"/>
     <use xlink:href="#m6a5c28a75c" x="293.78664" y="329.616146" style="fill: #00ff7f; stroke: #00ff7f; stroke-linejoin: miter"/>
     <use xlink:href="#m6a5c28a75c" x="302.949" y="330.248029" style="fill: #00ff7f; stroke: #00ff7f; stroke-linejoin: miter"/>
     <use xlink:href="#m6a5c28a75c" x="312.11136" y="330.620497" style="fill: #00ff7f; stroke: #00ff7f; stroke-linejoin: miter"/>
     <use xlink:href="#m6a5c28a75c" x="321.27372" y="330.678574" style="fill: #00ff7f; stroke: #00ff7f; stroke-linejoin: miter"/>
     <use xlink:href="#m6a5c28a75c" x="330.43608" y="330.663036" style="fill: #00ff7f; stroke: #00ff7f; stroke-linejoin: miter"/>
     <use xlink:href="#m6a5c28a75c" x="339.59844" y="330.993841" style="fill: #00ff7f; stroke: #00ff7f; stroke-linejoin: miter"/>
     <use xlink:href="#m6a5c28a75c" x="348.7608" y="331.887274" style="fill: #00ff7f; stroke: #00ff7f; stroke-linejoin: miter"/>
     <use xlink:href="#m6a5c28a75c" x="357.92316" y="333.068395" style="fill: #00ff7f; stroke: #00ff7f; stroke-linejoin: miter"/>
     <use xlink:href="#m6a5c28a75c" x="367.08552" y="333.940571" style="fill: #00ff7f; stroke: #00ff7f; stroke-linejoin: miter"/>
     <use xlink:href="#m6a5c28a75c" x="376.24788" y="334.149416" style="fill: #00ff7f; stroke: #00ff7f; stroke-linejoin: miter"/>
     <use xlink:href="#m6a5c28a75c" x="385.41024" y="333.988435" style="fill: #00ff7f; stroke: #00ff7f; stroke-linejoin: miter"/>
     <use xlink:href="#m6a5c28a75c" x="394.5726" y="334.119861" style="fill: #00ff7f; stroke: #00ff7f; stroke-linejoin: miter"/>
     <use xlink:href="#m6a5c28a75c" x="403.73496" y="334.797803" style="fill: #00ff7f; stroke: #00ff7f; stroke-linejoin: miter"/>
     <use xlink:href="#m6a5c28a75c" x="412.89732" y="335.504097" style="fill: #00ff7f; stroke: #00ff7f; stroke-linejoin: miter"/>
     <use xlink:href="#m6a5c28a75c" x="422.05968" y="335.612669" style="fill: #00ff7f; stroke: #00ff7f; stroke-linejoin: miter"/>
     <use xlink:href="#m6a5c28a75c" x="431.22204" y="335.357038" style="fill: #00ff7f; stroke: #00ff7f; stroke-linejoin: miter"/>
     <use xlink:href="#m6a5c28a75c" x="440.3844" y="335.642761" style="fill: #00ff7f; stroke: #00ff7f; stroke-linejoin: miter"/>
     <use xlink:href="#m6a5c28a75c" x="449.54676" y="336.707409" style="fill: #00ff7f; stroke: #00ff7f; stroke-linejoin: miter"/>
     <use xlink:href="#m6a5c28a75c" x="458.70912" y="337.718482" style="fill: #00ff7f; stroke: #00ff7f; stroke-linejoin: miter"/>
     <use xlink:href="#m6a5c28a75c" x="467.87148" y="338.181363" style="fill: #00ff7f; stroke: #00ff7f; stroke-linejoin: miter"/>
     <use xlink:href="#m6a5c28a75c" x="477.03384" y="338.494499" style="fill: #00ff7f; stroke: #00ff7f; stroke-linejoin: miter"/>
     <use xlink:href="#m6a5c28a75c" x="486.1962" y="338.965702" style="fill: #00ff7f; stroke: #00ff7f; stroke-linejoin: miter"/>
     <use xlink:href="#m6a5c28a75c" x="495.35856" y="340.419949" style="fill: #00ff7f; stroke: #00ff7f; stroke-linejoin: miter"/>
     <use xlink:href="#m6a5c28a75c" x="504.52092" y="340.134264" style="fill: #00ff7f; stroke: #00ff7f; stroke-linejoin: miter"/>
     <use xlink:href="#m6a5c28a75c" x="513.68328" y="340.049309" style="fill: #00ff7f; stroke: #00ff7f; stroke-linejoin: miter"/>
     <use xlink:href="#m6a5c28a75c" x="522.84564" y="340.070622" style="fill: #00ff7f; stroke: #00ff7f; stroke-linejoin: miter"/>
     <use xlink:href="#m6a5c28a75c" x="532.008" y="340.244933" style="fill: #00ff7f; stroke: #00ff7f; stroke-linejoin: miter"/>
    </g>
   </g>
   <g id="line2d_46">
    <path d="M 73.89 184.775981 
L 83.05236 205.170409 
L 92.21472 218.272485 
L 101.37708 228.717518 
L 110.53944 234.252669 
L 119.7018 236.544253 
L 128.86416 238.305755 
L 138.02652 240.893474 
L 147.18888 244.226892 
L 156.35124 247.663603 
L 165.5136 250.674414 
L 174.67596 253.031594 
L 183.83832 254.723024 
L 193.00068 255.847588 
L 202.16304 256.579806 
L 211.3254 257.15382 
L 220.48776 257.803435 
L 229.65012 258.666423 
L 238.81248 259.724347 
L 247.97484 260.839693 
L 257.1372 261.877246 
L 266.29956 262.820422 
L 275.46192 263.783531 
L 284.62428 264.896279 
L 293.78664 266.146532 
L 302.949 267.32327 
L 312.11136 268.143259 
L 321.27372 268.495564 
L 330.43608 268.606729 
L 339.59844 268.941202 
L 348.7608 269.841817 
L 357.92316 271.166249 
L 367.08552 272.268395 
L 376.24788 272.458471 
L 385.41024 271.648064 
L 394.5726 270.601193 
L 403.73496 270.426846 
L 412.89732 271.6305 
L 422.05968 273.611386 
L 431.22204 275.234473 
L 440.3844 276.002843 
L 449.54676 276.492133 
L 458.70912 277.369397 
L 467.87148 278.20505 
L 477.03384 278.025839 
L 486.1962 277.271071 
L 495.35856 277.598793 
L 504.52092 278.338553 
L 513.68328 279.776448 
L 522.84564 279.982288 
L 532.008 279.179631 
" clip-path="url(#pe581c9705f)" style="fill: none; stroke: #ff9900; stroke-width: 3; stroke-linecap: square"/>
   </g>
   <g id="line2d_47">
    <path d="M 73.89 185.645888 
L 83.05236 183.610489 
L 92.21472 196.181067 
L 101.37708 213.958941 
L 110.53944 233.094871 
L 119.7018 248.356788 
L 128.86416 257.590791 
L 138.02652 263.039509 
L 147.18888 268.789879 
L 156.35124 277.533574 
L 165.5136 289.071484 
L 174.67596 300.994258 
L 183.83832 310.52006 
L 193.00068 316.118856 
L 202.16304 318.067148 
L 211.3254 317.900029 
L 220.48776 317.340289 
L 229.65012 317.425173 
L 238.81248 318.262206 
L 247.97484 319.380333 
L 257.1372 320.298117 
L 266.29956 320.88566 
L 275.46192 321.329494 
L 284.62428 321.831548 
L 293.78664 322.35505 
L 302.949 322.651423 
L 312.11136 322.534233 
L 321.27372 322.128127 
L 330.43608 321.822062 
L 339.59844 321.922695 
L 348.7608 322.321317 
L 357.92316 322.545295 
L 367.08552 322.233163 
L 376.24788 321.598845 
L 385.41024 321.331822 
L 394.5726 321.892821 
L 403.73496 322.917789 
L 412.89732 323.537573 
L 422.05968 323.415775 
L 431.22204 323.175252 
L 440.3844 323.407467 
L 449.54676 323.662418 
L 458.70912 323.407224 
L 467.87148 323.410838 
L 477.03384 323.93486 
L 486.1962 323.360519 
L 495.35856 323.149579 
L 504.52092 323.413539 
L 513.68328 323.018756 
L 522.84564 323.193887 
L 532.008 323.306791 
" clip-path="url(#pe581c9705f)" style="fill: none; stroke-dasharray: 3.5,5.775; stroke-dashoffset: 0; stroke: #0000ff; stroke-width: 3.5"/>
   </g>
   <g id="line2d_48">
    <path d="M 73.89 185.2726 
L 83.05236 207.806841 
L 92.21472 248.53088 
L 101.37708 269.495044 
L 110.53944 285.06269 
L 119.7018 297.084669 
L 128.86416 303.631938 
L 138.02652 306.962054 
L 147.18888 311.588474 
L 156.35124 319.832868 
L 165.5136 330.31948 
L 174.67596 339.745631 
L 183.83832 345.571487 
L 193.00068 347.475925 
L 202.16304 346.996803 
L 211.3254 346.141103 
L 220.48776 346.149452 
L 229.65012 347.127777 
L 238.81248 348.489261 
L 247.97484 349.649828 
L 257.1372 350.429273 
L 266.29956 350.985359 
L 275.46192 351.502543 
L 284.62428 351.984429 
L 293.78664 352.317426 
L 302.949 352.48166 
L 312.11136 352.649202 
L 321.27372 353.042621 
L 330.43608 353.694465 
L 339.59844 354.38035 
L 348.7608 354.837689 
L 357.92316 355.062207 
L 367.08552 355.336704 
L 376.24788 355.903378 
L 385.41024 356.630731 
L 394.5726 357.123889 
L 403.73496 357.22508 
L 412.89732 357.253267 
L 422.05968 357.538938 
L 431.22204 357.860278 
L 440.3844 357.808875 
L 449.54676 357.671051 
L 458.70912 358.021189 
L 467.87148 358.393476 
L 477.03384 358.298906 
L 486.1962 358.726841 
L 495.35856 358.524937 
L 504.52092 358.800534 
L 513.68328 358.924797 
L 522.84564 358.966267 
L 532.008 359.236011 
" clip-path="url(#pe581c9705f)" style="fill: none; stroke-dasharray: 12.95,5.6; stroke-dashoffset: 0; stroke: #0000ff; stroke-width: 3.5"/>
   </g>
   <g id="line2d_49">
    <path d="M 73.89 185.333471 
L 83.05236 182.711985 
L 92.21472 216.140956 
L 101.37708 243.789249 
L 110.53944 266.440901 
L 119.7018 282.690201 
L 128.86416 291.811522 
L 138.02652 297.254138 
L 147.18888 304.086758 
L 156.35124 315.028079 
L 165.5136 328.96572 
L 174.67596 342.405432 
L 183.83832 352.088794 
L 193.00068 356.830946 
L 202.16304 357.698007 
L 211.3254 356.876532 
L 220.48776 356.240865 
L 229.65012 356.518958 
L 238.81248 357.368548 
L 247.97484 358.059194 
L 257.1372 358.168792 
L 266.29956 357.840319 
L 275.46192 357.53762 
L 284.62428 357.595889 
L 293.78664 357.955343 
L 302.949 358.266341 
L 312.11136 358.234812 
L 321.27372 357.888104 
L 330.43608 357.528133 
L 339.59844 357.427183 
L 348.7608 357.56405 
L 357.92316 357.667123 
L 367.08552 357.528966 
L 376.24788 357.258791 
L 385.41024 357.171999 
L 394.5726 357.413839 
L 403.73496 357.776523 
L 412.89732 357.999735 
L 422.05968 358.191073 
L 431.22204 358.6852 
L 440.3844 359.401435 
L 449.54676 359.800223 
L 458.70912 359.889561 
L 467.87148 360.468661 
L 477.03384 361.357888 
L 486.1962 361.465748 
L 495.35856 362.137987 
L 504.52092 362.461886 
L 513.68328 362.749146 
L 522.84564 363.181495 
L 532.008 363.681806 
" clip-path="url(#pe581c9705f)" style="fill: none; stroke: #0000ff; stroke-width: 3; stroke-linecap: square"/>
    <defs>
     <path id="mf03d692de9" d="M -0.25 0.25 
L 0.25 0.25 
L 0.25 -0.25 
L -0.25 -0.25 
z
" style="stroke: #0000ff; stroke-linejoin: miter"/>
    </defs>
    <g clip-path="url(#pe581c9705f)">
     <use xlink:href="#mf03d692de9" x="73.89" y="185.333471" style="fill: #0000ff; stroke: #0000ff; stroke-linejoin: miter"/>
     <use xlink:href="#mf03d692de9" x="83.05236" y="182.711985" style="fill: #0000ff; stroke: #0000ff; stroke-linejoin: miter"/>
     <use xlink:href="#mf03d692de9" x="92.21472" y="216.140956" style="fill: #0000ff; stroke: #0000ff; stroke-linejoin: miter"/>
     <use xlink:href="#mf03d692de9" x="101.37708" y="243.789249" style="fill: #0000ff; stroke: #0000ff; stroke-linejoin: miter"/>
     <use xlink:href="#mf03d692de9" x="110.53944" y="266.440901" style="fill: #0000ff; stroke: #0000ff; stroke-linejoin: miter"/>
     <use xlink:href="#mf03d692de9" x="119.7018" y="282.690201" style="fill: #0000ff; stroke: #0000ff; stroke-linejoin: miter"/>
     <use xlink:href="#mf03d692de9" x="128.86416" y="291.811522" style="fill: #0000ff; stroke: #0000ff; stroke-linejoin: miter"/>
     <use xlink:href="#mf03d692de9" x="138.02652" y="297.254138" style="fill: #0000ff; stroke: #0000ff; stroke-linejoin: miter"/>
     <use xlink:href="#mf03d692de9" x="147.18888" y="304.086758" style="fill: #0000ff; stroke: #0000ff; stroke-linejoin: miter"/>
     <use xlink:href="#mf03d692de9" x="156.35124" y="315.028079" style="fill: #0000ff; stroke: #0000ff; stroke-linejoin: miter"/>
     <use xlink:href="#mf03d692de9" x="165.5136" y="328.96572" style="fill: #0000ff; stroke: #0000ff; stroke-linejoin: miter"/>
     <use xlink:href="#mf03d692de9" x="174.67596" y="342.405432" style="fill: #0000ff; stroke: #0000ff; stroke-linejoin: miter"/>
     <use xlink:href="#mf03d692de9" x="183.83832" y="352.088794" style="fill: #0000ff; stroke: #0000ff; stroke-linejoin: miter"/>
     <use xlink:href="#mf03d692de9" x="193.00068" y="356.830946" style="fill: #0000ff; stroke: #0000ff; stroke-linejoin: miter"/>
     <use xlink:href="#mf03d692de9" x="202.16304" y="357.698007" style="fill: #0000ff; stroke: #0000ff; stroke-linejoin: miter"/>
     <use xlink:href="#mf03d692de9" x="211.3254" y="356.876532" style="fill: #0000ff; stroke: #0000ff; stroke-linejoin: miter"/>
     <use xlink:href="#mf03d692de9" x="220.48776" y="356.240865" style="fill: #0000ff; stroke: #0000ff; stroke-linejoin: miter"/>
     <use xlink:href="#mf03d692de9" x="229.65012" y="356.518958" style="fill: #0000ff; stroke: #0000ff; stroke-linejoin: miter"/>
     <use xlink:href="#mf03d692de9" x="238.81248" y="357.368548" style="fill: #0000ff; stroke: #0000ff; stroke-linejoin: miter"/>
     <use xlink:href="#mf03d692de9" x="247.97484" y="358.059194" style="fill: #0000ff; stroke: #0000ff; stroke-linejoin: miter"/>
     <use xlink:href="#mf03d692de9" x="257.1372" y="358.168792" style="fill: #0000ff; stroke: #0000ff; stroke-linejoin: miter"/>
     <use xlink:href="#mf03d692de9" x="266.29956" y="357.840319" style="fill: #0000ff; stroke: #0000ff; stroke-linejoin: miter"/>
     <use xlink:href="#mf03d692de9" x="275.46192" y="357.53762" style="fill: #0000ff; stroke: #0000ff; stroke-linejoin: miter"/>
     <use xlink:href="#mf03d692de9" x="284.62428" y="357.595889" style="fill: #0000ff; stroke: #0000ff; stroke-linejoin: miter"/>
     <use xlink:href="#mf03d692de9" x="293.78664" y="357.955343" style="fill: #0000ff; stroke: #0000ff; stroke-linejoin: miter"/>
     <use xlink:href="#mf03d692de9" x="302.949" y="358.266341" style="fill: #0000ff; stroke: #0000ff; stroke-linejoin: miter"/>
     <use xlink:href="#mf03d692de9" x="312.11136" y="358.234812" style="fill: #0000ff; stroke: #0000ff; stroke-linejoin: miter"/>
     <use xlink:href="#mf03d692de9" x="321.27372" y="357.888104" style="fill: #0000ff; stroke: #0000ff; stroke-linejoin: miter"/>
     <use xlink:href="#mf03d692de9" x="330.43608" y="357.528133" style="fill: #0000ff; stroke: #0000ff; stroke-linejoin: miter"/>
     <use xlink:href="#mf03d692de9" x="339.59844" y="357.427183" style="fill: #0000ff; stroke: #0000ff; stroke-linejoin: miter"/>
     <use xlink:href="#mf03d692de9" x="348.7608" y="357.56405" style="fill: #0000ff; stroke: #0000ff; stroke-linejoin: miter"/>
     <use xlink:href="#mf03d692de9" x="357.92316" y="357.667123" style="fill: #0000ff; stroke: #0000ff; stroke-linejoin: miter"/>
     <use xlink:href="#mf03d692de9" x="367.08552" y="357.528966" style="fill: #0000ff; stroke: #0000ff; stroke-linejoin: miter"/>
     <use xlink:href="#mf03d692de9" x="376.24788" y="357.258791" style="fill: #0000ff; stroke: #0000ff; stroke-linejoin: miter"/>
     <use xlink:href="#mf03d692de9" x="385.41024" y="357.171999" style="fill: #0000ff; stroke: #0000ff; stroke-linejoin: miter"/>
     <use xlink:href="#mf03d692de9" x="394.5726" y="357.413839" style="fill: #0000ff; stroke: #0000ff; stroke-linejoin: miter"/>
     <use xlink:href="#mf03d692de9" x="403.73496" y="357.776523" style="fill: #0000ff; stroke: #0000ff; stroke-linejoin: miter"/>
     <use xlink:href="#mf03d692de9" x="412.89732" y="357.999735" style="fill: #0000ff; stroke: #0000ff; stroke-linejoin: miter"/>
     <use xlink:href="#mf03d692de9" x="422.05968" y="358.191073" style="fill: #0000ff; stroke: #0000ff; stroke-linejoin: miter"/>
     <use xlink:href="#mf03d692de9" x="431.22204" y="358.6852" style="fill: #0000ff; stroke: #0000ff; stroke-linejoin: miter"/>
     <use xlink:href="#mf03d692de9" x="440.3844" y="359.401435" style="fill: #0000ff; stroke: #0000ff; stroke-linejoin: miter"/>
     <use xlink:href="#mf03d692de9" x="449.54676" y="359.800223" style="fill: #0000ff; stroke: #0000ff; stroke-linejoin: miter"/>
     <use xlink:href="#mf03d692de9" x="458.70912" y="359.889561" style="fill: #0000ff; stroke: #0000ff; stroke-linejoin: miter"/>
     <use xlink:href="#mf03d692de9" x="467.87148" y="360.468661" style="fill: #0000ff; stroke: #0000ff; stroke-linejoin: miter"/>
     <use xlink:href="#mf03d692de9" x="477.03384" y="361.357888" style="fill: #0000ff; stroke: #0000ff; stroke-linejoin: miter"/>
     <use xlink:href="#mf03d692de9" x="486.1962" y="361.465748" style="fill: #0000ff; stroke: #0000ff; stroke-linejoin: miter"/>
     <use xlink:href="#mf03d692de9" x="495.35856" y="362.137987" style="fill: #0000ff; stroke: #0000ff; stroke-linejoin: miter"/>
     <use xlink:href="#mf03d692de9" x="504.52092" y="362.461886" style="fill: #0000ff; stroke: #0000ff; stroke-linejoin: miter"/>
     <use xlink:href="#mf03d692de9" x="513.68328" y="362.749146" style="fill: #0000ff; stroke: #0000ff; stroke-linejoin: miter"/>
     <use xlink:href="#mf03d692de9" x="522.84564" y="363.181495" style="fill: #0000ff; stroke: #0000ff; stroke-linejoin: miter"/>
     <use xlink:href="#mf03d692de9" x="532.008" y="363.681806" style="fill: #0000ff; stroke: #0000ff; stroke-linejoin: miter"/>
    </g>
   </g>
   <g id="patch_3">
    <path d="M 73.89 381.9168 
L 73.89 51.4944 
" style="fill: none; stroke: #000000; stroke-width: 0.8; stroke-linejoin: miter; stroke-linecap: square"/>
   </g>
   <g id="patch_4">
    <path d="M 532.008 381.9168 
L 532.008 51.4944 
" style="fill: none; stroke: #000000; stroke-width: 0.8; stroke-linejoin: miter; stroke-linecap: square"/>
   </g>
   <g id="patch_5">
    <path d="M 73.89 381.9168 
L 532.008 381.9168 
" style="fill: none; stroke: #000000; stroke-width: 0.8; stroke-linejoin: miter; stroke-linecap: square"/>
   </g>
   <g id="patch_6">
    <path d="M 73.89 51.4944 
L 532.008 51.4944 
" style="fill: none; stroke: #000000; stroke-width: 0.8; stroke-linejoin: miter; stroke-linecap: square"/>
   </g>
   <g id="text_24">
    <!-- (a) -->
    <g transform="translate(294.59025 45.4944)scale(0.12 -0.12)">
     <defs>
      <path id="DejaVuSans-28" d="M 1984 4856 
Q 1566 4138 1362 3434 
Q 1159 2731 1159 2009 
Q 1159 1288 1364 580 
Q 1569 -128 1984 -844 
L 1484 -844 
Q 1016 -109 783 600 
Q 550 1309 550 2009 
Q 550 2706 781 3412 
Q 1013 4119 1484 4856 
L 1984 4856 
z
" transform="scale(0.015625)"/>
      <path id="DejaVuSans-29" d="M 513 4856 
L 1013 4856 
Q 1481 4119 1714 3412 
Q 1947 2706 1947 2009 
Q 1947 1309 1714 600 
Q 1481 -109 1013 -844 
L 513 -844 
Q 928 -128 1133 580 
Q 1338 1288 1338 2009 
Q 1338 2731 1133 3434 
Q 928 4138 513 4856 
z
" transform="scale(0.015625)"/>
     </defs>
     <use xlink:href="#DejaVuSans-28"/>
     <use xlink:href="#DejaVuSans-61" x="39.013672"/>
     <use xlink:href="#DejaVuSans-29" x="100.292969"/>
    </g>
   </g>
   <g id="legend_1">
    <g id="patch_7">
     <path d="M 80.89 162.241275 
L 278.975937 162.241275 
Q 280.975937 162.241275 280.975937 160.241275 
L 280.975937 58.4944 
Q 280.975937 56.4944 278.975937 56.4944 
L 80.89 56.4944 
Q 78.89 56.4944 78.89 58.4944 
L 78.89 160.241275 
Q 78.89 162.241275 80.89 162.241275 
z
" style="fill: #ffffff; opacity: 0.8; stroke: #cccccc; stroke-linejoin: miter"/>
    </g>
    <g id="line2d_50">
     <path d="M 82.89 64.592837 
L 92.89 64.592837 
L 102.89 64.592837 
" style="fill: none; stroke: #bf00bf; stroke-width: 3; stroke-linecap: square"/>
     <g>
      <use xlink:href="#m3554678256" x="92.89" y="64.592837" style="fill: #bf00bf; stroke: #bf00bf; stroke-linejoin: bevel"/>
     </g>
    </g>
    <g id="text_25">
     <!-- CPO, no reuse, B=200, q=10 -->
     <g transform="translate(110.89 68.092837)scale(0.1 -0.1)">
      <defs>
       <path id="DejaVuSans-43" d="M 4122 4306 
L 4122 3641 
Q 3803 3938 3442 4084 
Q 3081 4231 2675 4231 
Q 1875 4231 1450 3742 
Q 1025 3253 1025 2328 
Q 1025 1406 1450 917 
Q 1875 428 2675 428 
Q 3081 428 3442 575 
Q 3803 722 4122 1019 
L 4122 359 
Q 3791 134 3420 21 
Q 3050 -91 2638 -91 
Q 1578 -91 968 557 
Q 359 1206 359 2328 
Q 359 3453 968 4101 
Q 1578 4750 2638 4750 
Q 3056 4750 3426 4639 
Q 3797 4528 4122 4306 
z
" transform="scale(0.015625)"/>
       <path id="DejaVuSans-4f" d="M 2522 4238 
Q 1834 4238 1429 3725 
Q 1025 3213 1025 2328 
Q 1025 1447 1429 934 
Q 1834 422 2522 422 
Q 3209 422 3611 934 
Q 4013 1447 4013 2328 
Q 4013 3213 3611 3725 
Q 3209 4238 2522 4238 
z
M 2522 4750 
Q 3503 4750 4090 4092 
Q 4678 3434 4678 2328 
Q 4678 1225 4090 567 
Q 3503 -91 2522 -91 
Q 1538 -91 948 565 
Q 359 1222 359 2328 
Q 359 3434 948 4092 
Q 1538 4750 2522 4750 
z
" transform="scale(0.015625)"/>
       <path id="DejaVuSans-2c" d="M 750 794 
L 1409 794 
L 1409 256 
L 897 -744 
L 494 -744 
L 750 256 
L 750 794 
z
" transform="scale(0.015625)"/>
       <path id="DejaVuSans-42" d="M 1259 2228 
L 1259 519 
L 2272 519 
Q 2781 519 3026 730 
Q 3272 941 3272 1375 
Q 3272 1813 3026 2020 
Q 2781 2228 2272 2228 
L 1259 2228 
z
M 1259 4147 
L 1259 2741 
L 2194 2741 
Q 2656 2741 2882 2914 
Q 3109 3088 3109 3444 
Q 3109 3797 2882 3972 
Q 2656 4147 2194 4147 
L 1259 4147 
z
M 628 4666 
L 2241 4666 
Q 2963 4666 3353 4366 
Q 3744 4066 3744 3513 
Q 3744 3084 3544 2831 
Q 3344 2578 2956 2516 
Q 3422 2416 3680 2098 
Q 3938 1781 3938 1306 
Q 3938 681 3513 340 
Q 3088 0 2303 0 
L 628 0 
L 628 4666 
z
" transform="scale(0.015625)"/>
       <path id="DejaVuSans-3d" d="M 678 2906 
L 4684 2906 
L 4684 2381 
L 678 2381 
L 678 2906 
z
M 678 1631 
L 4684 1631 
L 4684 1100 
L 678 1100 
L 678 1631 
z
" transform="scale(0.015625)"/>
       <path id="DejaVuSans-71" d="M 947 1747 
Q 947 1113 1208 752 
Q 1469 391 1925 391 
Q 2381 391 2643 752 
Q 2906 1113 2906 1747 
Q 2906 2381 2643 2742 
Q 2381 3103 1925 3103 
Q 1469 3103 1208 2742 
Q 947 2381 947 1747 
z
M 2906 525 
Q 2725 213 2448 61 
Q 2172 -91 1784 -91 
Q 1150 -91 751 415 
Q 353 922 353 1747 
Q 353 2572 751 3078 
Q 1150 3584 1784 3584 
Q 2172 3584 2448 3432 
Q 2725 3281 2906 2969 
L 2906 3500 
L 3481 3500 
L 3481 -1331 
L 2906 -1331 
L 2906 525 
z
" transform="scale(0.015625)"/>
      </defs>
      <use xlink:href="#DejaVuSans-43"/>
      <use xlink:href="#DejaVuSans-50" x="69.824219"/>
      <use xlink:href="#DejaVuSans-4f" x="130.126953"/>
      <use xlink:href="#DejaVuSans-2c" x="208.837891"/>
      <use xlink:href="#DejaVuSans-20" x="240.625"/>
      <use xlink:href="#DejaVuSans-6e" x="272.412109"/>
      <use xlink:href="#DejaVuSans-6f" x="335.791016"/>
      <use xlink:href="#DejaVuSans-20" x="396.972656"/>
      <use xlink:href="#DejaVuSans-72" x="428.759766"/>
      <use xlink:href="#DejaVuSans-65" x="467.623047"/>
      <use xlink:href="#DejaVuSans-75" x="529.146484"/>
      <use xlink:href="#DejaVuSans-73" x="592.525391"/>
      <use xlink:href="#DejaVuSans-65" x="644.625"/>
      <use xlink:href="#DejaVuSans-2c" x="706.148438"/>
      <use xlink:href="#DejaVuSans-20" x="737.935547"/>
      <use xlink:href="#DejaVuSans-42" x="769.722656"/>
      <use xlink:href="#DejaVuSans-3d" x="838.326172"/>
      <use xlink:href="#DejaVuSans-32" x="922.115234"/>
      <use xlink:href="#DejaVuSans-30" x="985.738281"/>
      <use xlink:href="#DejaVuSans-30" x="1049.361328"/>
      <use xlink:href="#DejaVuSans-2c" x="1112.984375"/>
      <use xlink:href="#DejaVuSans-20" x="1144.771484"/>
      <use xlink:href="#DejaVuSans-71" x="1176.558594"/>
      <use xlink:href="#DejaVuSans-3d" x="1240.035156"/>
      <use xlink:href="#DejaVuSans-31" x="1323.824219"/>
      <use xlink:href="#DejaVuSans-30" x="1387.447266"/>
     </g>
    </g>
    <g id="line2d_51">
     <path d="M 82.89 79.270962 
L 92.89 79.270962 
L 102.89 79.270962 
" style="fill: none; stroke-dasharray: 12.95,5.6; stroke-dashoffset: 0; stroke: #bf00bf; stroke-width: 3.5"/>
     <g>
      <use xlink:href="#md718d87d23" x="92.89" y="79.270962" style="fill: #bf00bf; stroke: #bf00bf"/>
     </g>
    </g>
    <g id="text_26">
     <!-- PPO-Lag, no reuse, B=200, q=10 -->
     <g transform="translate(110.89 82.770962)scale(0.1 -0.1)">
      <defs>
       <path id="DejaVuSans-2d" d="M 313 2009 
L 1997 2009 
L 1997 1497 
L 313 1497 
L 313 2009 
z
" transform="scale(0.015625)"/>
       <path id="DejaVuSans-4c" d="M 628 4666 
L 1259 4666 
L 1259 531 
L 3531 531 
L 3531 0 
L 628 0 
L 628 4666 
z
" transform="scale(0.015625)"/>
       <path id="DejaVuSans-67" d="M 2906 1791 
Q 2906 2416 2648 2759 
Q 2391 3103 1925 3103 
Q 1463 3103 1205 2759 
Q 947 2416 947 1791 
Q 947 1169 1205 825 
Q 1463 481 1925 481 
Q 2391 481 2648 825 
Q 2906 1169 2906 1791 
z
M 3481 434 
Q 3481 -459 3084 -895 
Q 2688 -1331 1869 -1331 
Q 1566 -1331 1297 -1286 
Q 1028 -1241 775 -1147 
L 775 -588 
Q 1028 -725 1275 -790 
Q 1522 -856 1778 -856 
Q 2344 -856 2625 -561 
Q 2906 -266 2906 331 
L 2906 616 
Q 2728 306 2450 153 
Q 2172 0 1784 0 
Q 1141 0 747 490 
Q 353 981 353 1791 
Q 353 2603 747 3093 
Q 1141 3584 1784 3584 
Q 2172 3584 2450 3431 
Q 2728 3278 2906 2969 
L 2906 3500 
L 3481 3500 
L 3481 434 
z
" transform="scale(0.015625)"/>
      </defs>
      <use xlink:href="#DejaVuSans-50"/>
      <use xlink:href="#DejaVuSans-50" x="60.302734"/>
      <use xlink:href="#DejaVuSans-4f" x="120.605469"/>
      <use xlink:href="#DejaVuSans-2d" x="202.066406"/>
      <use xlink:href="#DejaVuSans-4c" x="238.150391"/>
      <use xlink:href="#DejaVuSans-61" x="293.863281"/>
      <use xlink:href="#DejaVuSans-67" x="355.142578"/>
      <use xlink:href="#DejaVuSans-2c" x="418.619141"/>
      <use xlink:href="#DejaVuSans-20" x="450.40625"/>
      <use xlink:href="#DejaVuSans-6e" x="482.193359"/>
      <use xlink:href="#DejaVuSans-6f" x="545.572266"/>
      <use xlink:href="#DejaVuSans-20" x="606.753906"/>
      <use xlink:href="#DejaVuSans-72" x="638.541016"/>
      <use xlink:href="#DejaVuSans-65" x="677.404297"/>
      <use xlink:href="#DejaVuSans-75" x="738.927734"/>
      <use xlink:href="#DejaVuSans-73" x="802.306641"/>
      <use xlink:href="#DejaVuSans-65" x="854.40625"/>
      <use xlink:href="#DejaVuSans-2c" x="915.929688"/>
      <use xlink:href="#DejaVuSans-20" x="947.716797"/>
      <use xlink:href="#DejaVuSans-42" x="979.503906"/>
      <use xlink:href="#DejaVuSans-3d" x="1048.107422"/>
      <use xlink:href="#DejaVuSans-32" x="1131.896484"/>
      <use xlink:href="#DejaVuSans-30" x="1195.519531"/>
      <use xlink:href="#DejaVuSans-30" x="1259.142578"/>
      <use xlink:href="#DejaVuSans-2c" x="1322.765625"/>
      <use xlink:href="#DejaVuSans-20" x="1354.552734"/>
      <use xlink:href="#DejaVuSans-71" x="1386.339844"/>
      <use xlink:href="#DejaVuSans-3d" x="1449.816406"/>
      <use xlink:href="#DejaVuSans-31" x="1533.605469"/>
      <use xlink:href="#DejaVuSans-30" x="1597.228516"/>
     </g>
    </g>
    <g id="line2d_52">
     <path d="M 82.89 93.949087 
L 92.89 93.949087 
L 102.89 93.949087 
" style="fill: none; stroke: #00ff7f; stroke-width: 3; stroke-linecap: square"/>
     <g>
      <use xlink:href="#m6a5c28a75c" x="92.89" y="93.949087" style="fill: #00ff7f; stroke: #00ff7f; stroke-linejoin: miter"/>
     </g>
    </g>
    <g id="text_27">
     <!-- SLDAC, no reuse, B=200, q=10 -->
     <g transform="translate(110.89 97.449087)scale(0.1 -0.1)">
      <defs>
       <path id="DejaVuSans-53" d="M 3425 4513 
L 3425 3897 
Q 3066 4069 2747 4153 
Q 2428 4238 2131 4238 
Q 1616 4238 1336 4038 
Q 1056 3838 1056 3469 
Q 1056 3159 1242 3001 
Q 1428 2844 1947 2747 
L 2328 2669 
Q 3034 2534 3370 2195 
Q 3706 1856 3706 1288 
Q 3706 609 3251 259 
Q 2797 -91 1919 -91 
Q 1588 -91 1214 -16 
Q 841 59 441 206 
L 441 856 
Q 825 641 1194 531 
Q 1563 422 1919 422 
Q 2459 422 2753 634 
Q 3047 847 3047 1241 
Q 3047 1584 2836 1778 
Q 2625 1972 2144 2069 
L 1759 2144 
Q 1053 2284 737 2584 
Q 422 2884 422 3419 
Q 422 4038 858 4394 
Q 1294 4750 2059 4750 
Q 2388 4750 2728 4690 
Q 3069 4631 3425 4513 
z
" transform="scale(0.015625)"/>
       <path id="DejaVuSans-44" d="M 1259 4147 
L 1259 519 
L 2022 519 
Q 2988 519 3436 956 
Q 3884 1394 3884 2338 
Q 3884 3275 3436 3711 
Q 2988 4147 2022 4147 
L 1259 4147 
z
M 628 4666 
L 1925 4666 
Q 3281 4666 3915 4102 
Q 4550 3538 4550 2338 
Q 4550 1131 3912 565 
Q 3275 0 1925 0 
L 628 0 
L 628 4666 
z
" transform="scale(0.015625)"/>
       <path id="DejaVuSans-41" d="M 2188 4044 
L 1331 1722 
L 3047 1722 
L 2188 4044 
z
M 1831 4666 
L 2547 4666 
L 4325 0 
L 3669 0 
L 3244 1197 
L 1141 1197 
L 716 0 
L 50 0 
L 1831 4666 
z
" transform="scale(0.015625)"/>
      </defs>
      <use xlink:href="#DejaVuSans-53"/>
      <use xlink:href="#DejaVuSans-4c" x="63.476562"/>
      <use xlink:href="#DejaVuSans-44" x="119.189453"/>
      <use xlink:href="#DejaVuSans-41" x="194.441406"/>
      <use xlink:href="#DejaVuSans-43" x="261.099609"/>
      <use xlink:href="#DejaVuSans-2c" x="330.923828"/>
      <use xlink:href="#DejaVuSans-20" x="362.710938"/>
      <use xlink:href="#DejaVuSans-6e" x="394.498047"/>
      <use xlink:href="#DejaVuSans-6f" x="457.876953"/>
      <use xlink:href="#DejaVuSans-20" x="519.058594"/>
      <use xlink:href="#DejaVuSans-72" x="550.845703"/>
      <use xlink:href="#DejaVuSans-65" x="589.708984"/>
      <use xlink:href="#DejaVuSans-75" x="651.232422"/>
      <use xlink:href="#DejaVuSans-73" x="714.611328"/>
      <use xlink:href="#DejaVuSans-65" x="766.710938"/>
      <use xlink:href="#DejaVuSans-2c" x="828.234375"/>
      <use xlink:href="#DejaVuSans-20" x="860.021484"/>
      <use xlink:href="#DejaVuSans-42" x="891.808594"/>
      <use xlink:href="#DejaVuSans-3d" x="960.412109"/>
      <use xlink:href="#DejaVuSans-32" x="1044.201172"/>
      <use xlink:href="#DejaVuSans-30" x="1107.824219"/>
      <use xlink:href="#DejaVuSans-30" x="1171.447266"/>
      <use xlink:href="#DejaVuSans-2c" x="1235.070312"/>
      <use xlink:href="#DejaVuSans-20" x="1266.857422"/>
      <use xlink:href="#DejaVuSans-71" x="1298.644531"/>
      <use xlink:href="#DejaVuSans-3d" x="1362.121094"/>
      <use xlink:href="#DejaVuSans-31" x="1445.910156"/>
      <use xlink:href="#DejaVuSans-30" x="1509.533203"/>
     </g>
    </g>
    <g id="line2d_53">
     <path d="M 82.89 108.627212 
L 92.89 108.627212 
L 102.89 108.627212 
" style="fill: none; stroke: #ff9900; stroke-width: 3; stroke-linecap: square"/>
    </g>
    <g id="text_28">
     <!-- SCAOPO, T=1000, B=500 -->
     <g transform="translate(110.89 112.127212)scale(0.1 -0.1)">
      <defs>
       <path id="DejaVuSans-54" d="M -19 4666 
L 3928 4666 
L 3928 4134 
L 2272 4134 
L 2272 0 
L 1638 0 
L 1638 4134 
L -19 4134 
L -19 4666 
z
" transform="scale(0.015625)"/>
      </defs>
      <use xlink:href="#DejaVuSans-53"/>
      <use xlink:href="#DejaVuSans-43" x="63.476562"/>
      <use xlink:href="#DejaVuSans-41" x="133.300781"/>
      <use xlink:href="#DejaVuSans-4f" x="199.958984"/>
      <use xlink:href="#DejaVuSans-50" x="278.669922"/>
      <use xlink:href="#DejaVuSans-4f" x="338.972656"/>
      <use xlink:href="#DejaVuSans-2c" x="417.683594"/>
      <use xlink:href="#DejaVuSans-20" x="449.470703"/>
      <use xlink:href="#DejaVuSans-54" x="481.257812"/>
      <use xlink:href="#DejaVuSans-3d" x="542.341797"/>
      <use xlink:href="#DejaVuSans-31" x="626.130859"/>
      <use xlink:href="#DejaVuSans-30" x="689.753906"/>
      <use xlink:href="#DejaVuSans-30" x="753.376953"/>
      <use xlink:href="#DejaVuSans-30" x="817"/>
      <use xlink:href="#DejaVuSans-2c" x="880.623047"/>
      <use xlink:href="#DejaVuSans-20" x="912.410156"/>
      <use xlink:href="#DejaVuSans-42" x="944.197266"/>
      <use xlink:href="#DejaVuSans-3d" x="1012.800781"/>
      <use xlink:href="#DejaVuSans-35" x="1096.589844"/>
      <use xlink:href="#DejaVuSans-30" x="1160.212891"/>
      <use xlink:href="#DejaVuSans-30" x="1223.835938"/>
     </g>
    </g>
    <g id="line2d_54">
     <path d="M 82.89 123.305337 
L 92.89 123.305337 
L 102.89 123.305337 
" style="fill: none; stroke-dasharray: 3.5,5.775; stroke-dashoffset: 0; stroke: #0000ff; stroke-width: 3.5"/>
    </g>
    <g id="text_29">
     <!-- SLDAC, T=1000, B=100, q=1 -->
     <g transform="translate(110.89 126.805337)scale(0.1 -0.1)">
      <use xlink:href="#DejaVuSans-53"/>
      <use xlink:href="#DejaVuSans-4c" x="63.476562"/>
      <use xlink:href="#DejaVuSans-44" x="119.189453"/>
      <use xlink:href="#DejaVuSans-41" x="194.441406"/>
      <use xlink:href="#DejaVuSans-43" x="261.099609"/>
      <use xlink:href="#DejaVuSans-2c" x="330.923828"/>
      <use xlink:href="#DejaVuSans-20" x="362.710938"/>
      <use xlink:href="#DejaVuSans-54" x="394.498047"/>
      <use xlink:href="#DejaVuSans-3d" x="455.582031"/>
      <use xlink:href="#DejaVuSans-31" x="539.371094"/>
      <use xlink:href="#DejaVuSans-30" x="602.994141"/>
      <use xlink:href="#DejaVuSans-30" x="666.617188"/>
      <use xlink:href="#DejaVuSans-30" x="730.240234"/>
      <use xlink:href="#DejaVuSans-2c" x="793.863281"/>
      <use xlink:href="#DejaVuSans-20" x="825.650391"/>
      <use xlink:href="#DejaVuSans-42" x="857.4375"/>
      <use xlink:href="#DejaVuSans-3d" x="926.041016"/>
      <use xlink:href="#DejaVuSans-31" x="1009.830078"/>
      <use xlink:href="#DejaVuSans-30" x="1073.453125"/>
      <use xlink:href="#DejaVuSans-30" x="1137.076172"/>
      <use xlink:href="#DejaVuSans-2c" x="1200.699219"/>
      <use xlink:href="#DejaVuSans-20" x="1232.486328"/>
      <use xlink:href="#DejaVuSans-71" x="1264.273438"/>
      <use xlink:href="#DejaVuSans-3d" x="1327.75"/>
      <use xlink:href="#DejaVuSans-31" x="1411.539062"/>
     </g>
    </g>
    <g id="line2d_55">
     <path d="M 82.89 137.983462 
L 92.89 137.983462 
L 102.89 137.983462 
" style="fill: none; stroke-dasharray: 12.95,5.6; stroke-dashoffset: 0; stroke: #0000ff; stroke-width: 3.5"/>
    </g>
    <g id="text_30">
     <!-- SLDAC, T=1000, B=100, q=5 -->
     <g transform="translate(110.89 141.483462)scale(0.1 -0.1)">
      <use xlink:href="#DejaVuSans-53"/>
      <use xlink:href="#DejaVuSans-4c" x="63.476562"/>
      <use xlink:href="#DejaVuSans-44" x="119.189453"/>
      <use xlink:href="#DejaVuSans-41" x="194.441406"/>
      <use xlink:href="#DejaVuSans-43" x="261.099609"/>
      <use xlink:href="#DejaVuSans-2c" x="330.923828"/>
      <use xlink:href="#DejaVuSans-20" x="362.710938"/>
      <use xlink:href="#DejaVuSans-54" x="394.498047"/>
      <use xlink:href="#DejaVuSans-3d" x="455.582031"/>
      <use xlink:href="#DejaVuSans-31" x="539.371094"/>
      <use xlink:href="#DejaVuSans-30" x="602.994141"/>
      <use xlink:href="#DejaVuSans-30" x="666.617188"/>
      <use xlink:href="#DejaVuSans-30" x="730.240234"/>
      <use xlink:href="#DejaVuSans-2c" x="793.863281"/>
      <use xlink:href="#DejaVuSans-20" x="825.650391"/>
      <use xlink:href="#DejaVuSans-42" x="857.4375"/>
      <use xlink:href="#DejaVuSans-3d" x="926.041016"/>
      <use xlink:href="#DejaVuSans-31" x="1009.830078"/>
      <use xlink:href="#DejaVuSans-30" x="1073.453125"/>
      <use xlink:href="#DejaVuSans-30" x="1137.076172"/>
      <use xlink:href="#DejaVuSans-2c" x="1200.699219"/>
      <use xlink:href="#DejaVuSans-20" x="1232.486328"/>
      <use xlink:href="#DejaVuSans-71" x="1264.273438"/>
      <use xlink:href="#DejaVuSans-3d" x="1327.75"/>
      <use xlink:href="#DejaVuSans-35" x="1411.539062"/>
     </g>
    </g>
    <g id="line2d_56">
     <path d="M 82.89 152.661587 
L 92.89 152.661587 
L 102.89 152.661587 
" style="fill: none; stroke: #0000ff; stroke-width: 3; stroke-linecap: square"/>
     <g>
      <use xlink:href="#mf03d692de9" x="92.89" y="152.661587" style="fill: #0000ff; stroke: #0000ff; stroke-linejoin: miter"/>
     </g>
    </g>
    <g id="text_31">
     <!-- SLDAC, T=1000, B=100, q=10 -->
     <g transform="translate(110.89 156.161587)scale(0.1 -0.1)">
      <use xlink:href="#DejaVuSans-53"/>
      <use xlink:href="#DejaVuSans-4c" x="63.476562"/>
      <use xlink:href="#DejaVuSans-44" x="119.189453"/>
      <use xlink:href="#DejaVuSans-41" x="194.441406"/>
      <use xlink:href="#DejaVuSans-43" x="261.099609"/>
      <use xlink:href="#DejaVuSans-2c" x="330.923828"/>
      <use xlink:href="#DejaVuSans-20" x="362.710938"/>
      <use xlink:href="#DejaVuSans-54" x="394.498047"/>
      <use xlink:href="#DejaVuSans-3d" x="455.582031"/>
      <use xlink:href="#DejaVuSans-31" x="539.371094"/>
      <use xlink:href="#DejaVuSans-30" x="602.994141"/>
      <use xlink:href="#DejaVuSans-30" x="666.617188"/>
      <use xlink:href="#DejaVuSans-30" x="730.240234"/>
      <use xlink:href="#DejaVuSans-2c" x="793.863281"/>
      <use xlink:href="#DejaVuSans-20" x="825.650391"/>
      <use xlink:href="#DejaVuSans-42" x="857.4375"/>
      <use xlink:href="#DejaVuSans-3d" x="926.041016"/>
      <use xlink:href="#DejaVuSans-31" x="1009.830078"/>
      <use xlink:href="#DejaVuSans-30" x="1073.453125"/>
      <use xlink:href="#DejaVuSans-30" x="1137.076172"/>
      <use xlink:href="#DejaVuSans-2c" x="1200.699219"/>
      <use xlink:href="#DejaVuSans-20" x="1232.486328"/>
      <use xlink:href="#DejaVuSans-71" x="1264.273438"/>
      <use xlink:href="#DejaVuSans-3d" x="1327.75"/>
      <use xlink:href="#DejaVuSans-31" x="1411.539062"/>
      <use xlink:href="#DejaVuSans-30" x="1475.162109"/>
     </g>
    </g>
   </g>
  </g>
 </g>
 <defs>
  <clipPath id="pe581c9705f">
   <rect x="73.89" y="51.4944" width="458.118" height="330.4224"/>
  </clipPath>
 </defs>
</svg>
